<svg xmlns="http://www.w3.org/2000/svg" width="900" height="200" viewBox="0 0 629 167" version="1.1"><path d="M 63 2.068 C 33.086 9.879, 9.651 33.452, 2.016 63.410 C -0.543 73.452, -0.737 91.866, 1.609 102.179 C 5.104 117.544, 12.786 131.440, 24.100 142.860 C 34.748 153.608, 45.957 160.257, 60.554 164.488 C 67.985 166.641, 71.234 167, 83.298 167 C 100.409 167, 106.818 165.618, 120.500 158.981 C 138.196 150.396, 150.372 138.242, 159.051 120.500 C 165.841 106.619, 167.413 99.525, 167.358 83 C 167.319 71.319, 166.953 68.313, 164.644 60.693 C 160.724 47.754, 155.367 37.888, 147.164 28.500 C 142.669 23.355, 132.929 15, 131.426 15 C 130.084 15, 124.990 22.340, 125.021 24.229 C 125.033 24.928, 126.853 26.781, 129.065 28.346 C 133.739 31.654, 141.716 40.953, 145.677 47.713 C 147.194 50.300, 149.736 56.035, 151.328 60.458 C 155.180 71.163, 156.130 87.825, 153.549 99.422 C 149.096 119.438, 134.547 138.123, 116.312 147.241 C 103.629 153.584, 94.802 155.407, 80.110 154.719 C 71.172 154.301, 66.738 153.567, 60.843 151.529 C 42.478 145.180, 28.353 132.789, 19.619 115.365 C 14.222 104.598, 12.585 97.230, 12.539 83.500 C 12.494 69.813, 14.448 61.780, 20.810 49.500 C 25.798 39.873, 39.885 25.789, 49.500 20.817 C 65.086 12.758, 81.508 10.238, 97.035 13.523 C 110.114 16.290, 110.125 16.288, 111.867 10.731 C 112.831 7.659, 113.019 5.619, 112.395 4.995 C 111.863 4.463, 107.884 3.121, 103.554 2.014 C 92.805 -0.735, 73.639 -0.709, 63 2.068 M 74.500 17.940 C 65.860 19.346, 60.750 21.059, 52.500 25.315 C 29.791 37.032, 14.845 64.364, 17.515 89.296 C 18.473 98.239, 18.621 98.385, 25.094 96.744 L 30.500 95.374 30.199 85.937 C 29.680 69.700, 34.573 57.220, 45.897 45.897 C 57.360 34.433, 70.578 29.350, 86.500 30.282 C 96.981 30.896, 105.109 33.472, 112.932 38.660 C 128.651 49.084, 137.280 65.175, 137.203 83.915 C 137.080 113.538, 113.670 137.002, 84 137.239 C 66.776 137.377, 50.759 129.596, 41.407 116.548 C 39.258 113.549, 36.920 111.074, 36.210 111.048 C 34.637 110.989, 27.347 114.630, 26.592 115.851 C 25.650 117.376, 31.809 125.578, 38.969 132.332 C 64.554 156.468, 105.410 155.627, 130.590 130.447 C 142.191 118.846, 148.843 103.730, 149.707 87.002 C 150.340 74.767, 148.361 65.204, 142.879 54 C 135.014 37.927, 117.766 23.868, 100.573 19.517 C 93.068 17.618, 80.978 16.887, 74.500 17.940 M 74.500 36.039 C 55.458 39.943, 41.430 53.398, 36.532 72.460 C 28.890 102.194, 52.433 132.020, 83.500 131.964 C 95.459 131.942, 105.782 128.384, 113.568 121.601 L 117.500 118.175 114.054 114.587 C 110.473 110.860, 107.063 110.015, 105.108 112.370 C 104.483 113.123, 101.165 115.021, 97.735 116.586 C 89.088 120.534, 78.163 120.602, 69.782 116.761 C 62.260 113.313, 54.690 106.104, 51.262 99.125 C 48.805 94.121, 48.500 92.396, 48.500 83.500 C 48.500 74.024, 48.678 73.172, 51.899 67.232 C 55.810 60.020, 60.693 55.247, 68.214 51.286 C 72.974 48.778, 74.494 48.501, 83.500 48.501 C 92.396 48.500, 94.121 48.805, 99.125 51.262 C 105.315 54.302, 112.723 61.568, 115.791 67.608 C 119.815 75.528, 120.741 87.092, 117.952 94.583 C 116.922 97.349, 117.671 98.311, 122.931 100.978 C 127.085 103.085, 127.441 103.117, 128.622 101.503 C 130.500 98.934, 132 90.776, 132 83.132 C 132 53.425, 103.511 30.092, 74.500 36.039 M 406.574 51.421 C 404.415 52.226, 401.040 54.494, 399.074 56.459 C 395.663 59.870, 395.500 60.350, 395.500 66.961 C 395.500 73.518, 395.686 74.081, 398.984 77.484 C 401.677 80.262, 404.404 81.665, 410.984 83.661 C 422.377 87.115, 425.003 88.544, 424.985 91.276 C 424.963 94.378, 423.928 95.696, 420.480 97.011 C 416.872 98.386, 410.471 97.560, 404.325 94.925 C 401.855 93.866, 399.665 93, 399.459 93 C 398.510 93, 393.912 102.049, 394.433 102.892 C 395.809 105.118, 408.611 108.350, 416.088 108.359 C 429.188 108.375, 436.813 103.003, 437.766 93.086 C 438.721 83.143, 434.534 78.427, 421.190 74.415 C 410.538 71.213, 408 69.696, 408 66.534 C 408 61.255, 415.733 59.544, 425.917 62.568 C 428.821 63.430, 431.323 63.993, 431.476 63.818 C 432.273 62.907, 436.093 54.771, 435.820 54.566 C 435.644 54.433, 433.475 53.527, 431 52.552 C 424.868 50.136, 411.657 49.524, 406.574 51.421 M 219 72 C 219 91.667, 218.873 93.127, 217 95 C 214.411 97.589, 210.569 97.542, 206.825 94.875 L 203.840 92.750 199.924 96.574 L 196.008 100.398 198.726 103.236 C 204.376 109.133, 217.262 110.346, 224.185 105.632 C 231.386 100.729, 231.467 100.394, 231.801 74.429 L 232.103 51 225.551 51 L 219 51 219 72 M 447 58.500 L 447 64 443.500 64 C 440.019 64, 440 64.024, 440 68.500 C 440 72.976, 440.019 73, 443.500 73 L 447 73 447 86.550 C 447 101.901, 447.896 104.871, 453.203 107.109 C 455.016 107.874, 458.525 108.466, 461 108.425 C 465.463 108.350, 473 105.535, 473 103.943 C 473 103.487, 472.059 101.520, 470.909 99.571 C 469.174 96.630, 468.505 96.195, 466.975 97.013 C 464.069 98.569, 461.162 98.172, 460.035 96.066 C 459.466 95.002, 459 89.377, 459 83.566 L 459 73 464 73 L 469 73 469 68.500 L 469 64 464 64 L 459 64 459 58.500 L 459 53 453 53 L 447 53 447 58.500 M 603 58.500 L 603 64 599.500 64 C 596.019 64, 596 64.024, 596 68.500 C 596 72.976, 596.019 73, 599.500 73 L 603 73 603 86.550 C 603 101.901, 603.896 104.871, 609.203 107.109 C 613.643 108.982, 620.678 108.742, 625.250 106.561 C 629.591 104.490, 629.726 103.911, 626.922 99.374 C 625.203 96.593, 624.524 96.184, 622.988 97.006 C 620.070 98.568, 617.164 98.175, 616.035 96.066 C 615.466 95.002, 615 89.377, 615 83.566 L 615 73 620 73 L 625 73 625 68.500 L 625 64 620 64 L 615 64 615 58.500 L 615 53 609 53 L 603 53 603 58.500 M 247.500 65.074 C 244.200 66.234, 241.323 67.357, 241.106 67.569 C 240.566 68.098, 244.017 77, 244.762 77 C 245.090 77, 248.241 76.026, 251.764 74.837 C 259.837 72.109, 263.344 72.935, 263.806 77.671 C 264.098 80.660, 263.913 80.836, 259.806 81.471 C 246.322 83.558, 240 88.479, 240 96.889 C 240 102.805, 242.835 106.340, 248.889 107.970 C 253.500 109.212, 260.220 107.956, 263.203 105.295 C 264.734 103.929, 265.345 103.989, 269.268 105.888 C 271.668 107.050, 275.064 108, 276.816 108 C 279.912 108, 280 107.878, 280 103.607 C 280 100.625, 279.518 99.029, 278.500 98.638 C 277.284 98.172, 277 95.830, 276.998 86.281 C 276.997 73.229, 275.812 69.338, 270.699 65.588 C 266.548 62.543, 255.403 62.297, 247.500 65.074 M 305.021 64.116 C 303.657 64.660, 301.744 65.826, 300.771 66.708 C 299.129 68.194, 299 68.154, 299 66.155 C 299 64.188, 298.477 64, 293 64 L 287 64 287 86 L 287 108 293 108 L 299 108 299 92.573 L 299 77.145 301.635 75.073 C 304.538 72.789, 309.926 72.326, 311.800 74.200 C 312.635 75.035, 313 80.356, 313 91.700 L 313 108 319.581 108 L 326.162 108 325.830 90.250 C 325.462 70.604, 324.617 67.405, 319.033 64.517 C 315.744 62.816, 308.778 62.617, 305.021 64.116 M 344.500 64.896 C 334.087 69.717, 329.545 81.523, 333.110 94.500 C 335.605 103.580, 347.034 110.122, 357.628 108.533 C 362.507 107.801, 370.415 104.756, 371.346 103.250 C 371.834 102.460, 367.530 95, 366.586 95 C 366.398 95, 364.629 95.675, 362.654 96.500 C 358.966 98.041, 352.415 98.480, 349.545 97.379 C 348.140 96.840, 345 92.122, 345 90.550 C 345 90.247, 351.300 90, 359 90 L 373 90 373 83.565 C 373 80.026, 372.521 75.863, 371.936 74.315 C 370.489 70.484, 366.174 66.042, 362.282 64.377 C 357.761 62.442, 349.264 62.690, 344.500 64.896 M 494.250 64.964 C 492.462 66.068, 490.955 67.540, 490.900 68.235 C 490.845 68.931, 490.490 68.375, 490.109 67 C 489.489 64.757, 488.831 64.469, 483.709 64.200 L 478 63.900 478 85.950 L 478 108 484 108 L 490 108 490 94.712 C 490 81.522, 490.021 81.399, 492.892 77.962 C 495.542 74.791, 496.212 74.513, 500.866 74.650 C 505.832 74.797, 505.958 74.729, 506.453 71.650 C 507.815 63.169, 507.983 63.526, 502.500 63.229 C 498.882 63.032, 496.601 63.512, 494.250 64.964 M 521.030 64.113 C 512.308 67.593, 507.637 75.054, 507.588 85.581 C 507.544 95.057, 510.608 101.245, 517.431 105.463 C 521.627 108.057, 523.178 108.439, 529.377 108.405 C 536.607 108.364, 547 105.026, 547 102.745 C 547 100.961, 542.877 94.999, 541.668 95.035 C 541.026 95.055, 539.375 95.714, 538 96.500 C 536.625 97.286, 533.342 97.945, 530.705 97.965 C 526.918 97.993, 525.393 97.484, 523.455 95.545 C 518.490 90.581, 519.642 90, 534.455 90 L 547.909 90 548.593 86.356 C 549.457 81.752, 547.635 73.700, 544.842 69.779 C 543.663 68.122, 540.853 65.929, 538.599 64.905 C 534.137 62.879, 525.138 62.473, 521.030 64.113 M 565 64.592 C 551.472 70.443, 547.646 90.707, 557.871 102.356 C 563.028 108.233, 575.892 110.278, 585.171 106.697 C 592.864 103.729, 593.061 102.692, 587.365 95.125 C 587.210 94.918, 585.255 95.481, 583.021 96.375 C 577.012 98.779, 570.813 98.515, 568.323 95.750 C 567.209 94.513, 566.020 92.713, 565.680 91.750 C 565.111 90.137, 566.159 90, 579.031 90 L 593 90 593.140 86.750 C 593.639 75.150, 590.742 68.506, 583.698 65.096 C 578.529 62.594, 570.143 62.368, 565 64.592 M 350.110 73.396 C 347.933 74.602, 345.123 78.398, 345.035 80.250 C 345.016 80.662, 348.600 81, 353 81 C 360.393 81, 361 80.845, 361 78.955 C 361 76.413, 356.712 71.988, 354.295 72.035 C 353.308 72.055, 351.425 72.667, 350.110 73.396 M 526.357 72.992 C 524.002 73.942, 521 77.714, 521 79.723 C 521 80.653, 523.175 81, 529 81 C 533.400 81, 537 80.842, 537 80.649 C 537 78.200, 534.246 73.664, 532.312 72.929 C 529.462 71.845, 529.191 71.848, 526.357 72.992 M 569.196 74.488 C 567.570 75.857, 566.003 77.882, 565.713 78.988 C 565.219 80.879, 565.664 81, 573.094 81 C 580.797 81, 581 80.938, 581 78.573 C 581 75.889, 576.824 72, 573.942 72 C 572.958 72, 570.823 73.120, 569.196 74.488 M 255.819 90.536 C 248.244 94.649, 253.501 101.463, 261.453 97.839 C 263.539 96.889, 264 95.983, 264 92.839 C 264 89.308, 263.779 89.003, 261.250 89.040 C 259.738 89.062, 257.293 89.735, 255.819 90.536" stroke="none" fill="#fffcfc" fill-rule="evenodd"/><path d="" stroke="none" fill="#fcfcfc" fill-rule="evenodd"/></svg>