<?xml version="1.0" standalone="no"?>
<!DOCTYPE svg PUBLIC "-//W3C//DTD SVG 20010904//EN"
 "http://www.w3.org/TR/2001/REC-SVG-20010904/DTD/svg10.dtd">
<svg version="1.0" xmlns="http://www.w3.org/2000/svg"
 width="1284.000000pt" height="361.000000pt" viewBox="0 0 1284.000000 361.000000"
 preserveAspectRatio="xMidYMid meet">

<g transform="translate(0.000000,361.000000) scale(0.100000,-0.100000)"
fill="#000000" stroke="none">
<path d="M1605 3435 c-370 -60 -675 -215 -935 -475 -140 -140 -229 -263 -314
-435 -117 -235 -165 -425 -173 -687 -6 -176 5 -299 42 -455 101 -428 394 -821
783 -1050 525 -309 1196 -302 1719 19 841 514 1055 1655 458 2438 -110 144
-331 350 -375 350 -23 0 -132 -153 -124 -174 3 -8 30 -34 60 -56 89 -69 237
-232 308 -337 160 -241 239 -504 239 -798 0 -170 -19 -286 -74 -450 -73 -220
-184 -399 -350 -564 -411 -412 -1007 -535 -1552 -321 -318 125 -600 385 -757
698 -49 99 -102 253 -127 372 -28 133 -26 421 5 559 66 292 190 520 397 726
206 207 434 331 726 397 88 19 132 23 289 23 197 0 273 -11 429 -60 59 -19 78
-22 87 -12 6 7 26 51 44 99 25 67 30 91 21 101 -13 17 -123 50 -253 78 -126
27 -443 35 -573 14z"/>
<path d="M1720 3090 c-585 -60 -1064 -504 -1166 -1080 -27 -154 -18 -470 14
-502 8 -8 196 33 209 46 3 3 0 56 -6 118 -21 206 15 393 113 593 165 333 485
553 865 595 434 48 882 -204 1076 -603 150 -312 151 -646 0 -952 -64 -130
-126 -215 -228 -312 -180 -171 -388 -266 -644 -295 -376 -43 -795 156 -1001
474 -20 32 -43 58 -51 58 -22 0 -172 -83 -182 -101 -13 -25 90 -168 201 -279
184 -185 408 -307 661 -361 139 -30 392 -33 519 -6 279 59 519 192 708 391
172 182 285 400 339 656 27 128 24 380 -6 520 -112 523 -531 931 -1052 1024
-111 20 -264 26 -369 16z"/>
<path d="M1705 2729 c-127 -18 -286 -81 -402 -160 -81 -54 -224 -208 -274
-295 -89 -152 -126 -274 -135 -449 -25 -445 255 -838 693 -972 81 -25 101 -27
263 -27 162 0 182 2 263 27 100 31 207 82 287 138 128 89 129 95 38 177 -38
34 -78 62 -87 62 -10 0 -39 -16 -64 -35 -56 -43 -164 -98 -237 -120 -86 -26
-251 -31 -346 -11 -217 48 -408 195 -504 391 -97 196 -104 408 -20 607 70 167
228 324 396 392 295 120 631 35 837 -211 63 -75 131 -217 153 -317 21 -101 15
-261 -15 -356 -12 -36 -21 -66 -21 -67 0 -5 189 -103 198 -103 15 0 59 142 73
233 16 100 6 293 -20 392 -124 472 -587 774 -1076 704z"/>
<path d="M8326 2421 c-80 -27 -159 -83 -195 -140 -78 -121 -60 -295 40 -385
50 -46 95 -68 202 -100 48 -14 125 -37 171 -51 67 -20 90 -32 115 -60 41 -48
42 -92 1 -138 -39 -45 -98 -61 -198 -54 -76 5 -217 48 -268 82 -22 14 -24 12
-77 -73 -30 -48 -52 -91 -50 -95 9 -15 134 -67 212 -88 107 -28 277 -36 364
-15 181 43 275 138 285 291 9 142 -44 238 -166 303 -32 17 -118 47 -192 67
-150 41 -199 62 -229 101 -25 32 -26 55 -6 98 41 87 207 104 384 41 38 -14 73
-25 78 -25 10 0 83 147 83 167 0 6 -24 20 -52 31 -126 47 -163 54 -303 58
-119 4 -149 1 -199 -15z"/>
<path d="M4580 2042 c0 -421 -4 -459 -60 -506 -62 -51 -157 -41 -225 24 l-30
29 -80 -75 -80 -74 45 -41 c25 -23 74 -56 110 -73 61 -29 72 -31 180 -31 106
0 120 2 178 29 77 36 142 104 174 184 22 56 23 67 26 485 l3 427 -120 0 -121
0 0 -378z"/>
<path d="M9120 2270 l0 -110 -65 0 -65 0 0 -80 0 -80 64 0 65 0 3 -267 c4
-304 9 -326 80 -387 78 -67 231 -74 354 -17 35 16 67 37 70 44 4 11 -45 103
-72 136 -2 2 -21 -4 -44 -13 -55 -22 -105 -21 -129 3 -27 27 -33 92 -29 311
l3 185 98 3 97 3 0 79 0 79 -97 3 -98 3 -3 108 -3 107 -114 0 -115 0 0 -110z"/>
<path d="M12240 2270 l0 -110 -65 0 -65 0 0 -80 0 -80 64 0 65 0 3 -267 c4
-304 9 -326 80 -387 78 -67 231 -74 354 -17 35 16 67 37 70 45 4 11 -47 107
-72 135 -2 2 -21 -4 -44 -13 -55 -22 -105 -21 -130 4 -19 19 -20 33 -20 260
l0 240 95 0 95 0 0 80 0 80 -95 0 -95 0 0 110 0 110 -120 0 -120 0 0 -110z"/>
<path d="M6340 2176 c-65 -14 -107 -35 -155 -77 -35 -31 -35 -31 -35 -8 -1 68
-2 69 -121 69 l-109 0 0 -425 0 -425 115 0 115 0 0 299 0 299 46 41 c51 45
110 66 162 57 87 -14 92 -36 92 -396 l0 -300 115 0 115 0 0 329 c0 362 -4 395
-61 464 -56 68 -170 98 -279 73z"/>
<path d="M7176 2179 c-180 -26 -319 -171 -346 -360 -17 -117 6 -249 57 -336
37 -63 124 -138 191 -164 77 -30 222 -37 314 -15 77 18 208 80 208 99 0 7 -20
43 -46 80 l-45 68 -32 -19 c-80 -48 -213 -68 -288 -43 -43 14 -83 53 -103 103
-31 72 -46 68 259 68 l274 0 7 35 c3 20 4 79 2 133 -6 154 -60 248 -176 310
-51 27 -165 55 -207 51 -5 -1 -36 -5 -69 -10z m125 -169 c59 -17 109 -88 109
-156 l0 -24 -170 0 c-188 0 -182 -2 -151 65 24 51 77 101 121 113 46 13 49 13
91 2z"/>
<path d="M10138 2181 c-49 -16 -98 -52 -132 -97 l-34 -44 -7 60 -7 60 -109 0
-109 0 0 -425 0 -425 115 0 115 0 0 253 0 253 28 45 c60 94 130 128 229 109
31 -5 58 -9 59 -7 7 7 37 208 32 213 -11 10 -152 14 -180 5z"/>
<path d="M10685 2179 c-134 -20 -269 -125 -315 -246 -57 -150 -42 -338 36
-464 35 -56 120 -126 182 -150 78 -29 223 -37 315 -15 60 14 172 62 204 88 9
7 0 29 -38 85 l-50 74 -25 -16 c-37 -24 -102 -46 -163 -54 -109 -16 -195 22
-232 103 -37 81 -53 76 256 76 l274 0 7 35 c3 20 4 79 2 133 -6 154 -60 248
-176 310 -51 27 -165 55 -207 51 -5 -1 -37 -5 -70 -10z m164 -188 c40 -28 60
-63 67 -113 l7 -48 -172 0 c-189 0 -183 -2 -152 65 49 105 172 153 250 96z"/>
<path d="M11578 2179 c-206 -30 -348 -208 -348 -436 0 -197 76 -335 226 -409
68 -34 84 -38 177 -42 116 -5 194 10 292 58 97 47 95 39 40 123 l-49 74 -60
-28 c-154 -72 -306 -48 -355 54 -42 88 -62 81 249 87 l274 5 9 45 c12 67 1
189 -24 256 -30 79 -113 163 -189 191 -67 25 -165 34 -242 22z m166 -187 c33
-19 61 -69 70 -124 l7 -38 -176 0 -175 0 20 52 c45 118 156 166 254 110z"/>
<path d="M5193 2160 c-69 -18 -170 -56 -186 -70 -5 -4 11 -45 34 -92 l42 -85
77 34 c141 61 237 67 286 18 20 -20 24 -34 24 -83 l0 -59 -71 -7 c-153 -15
-266 -57 -341 -124 -82 -74 -102 -184 -50 -282 21 -42 39 -59 82 -84 51 -29
62 -31 150 -31 83 1 101 4 146 27 28 15 65 38 81 52 l31 26 35 -34 c38 -36 86
-51 185 -61 l62 -6 0 86 c0 74 -2 85 -17 85 -47 1 -48 6 -53 262 -5 241 -5
244 -33 300 -32 66 -87 111 -161 133 -70 21 -233 19 -323 -5z m277 -555 l0
-85 -41 -27 c-29 -19 -57 -28 -100 -31 -54 -4 -60 -2 -89 26 -65 66 -13 153
111 186 30 8 69 15 87 15 l32 1 0 -85z"/>
</g>
</svg>
