<?xml version="1.0" encoding="utf-8"?>
<!-- Generator: Adobe Illustrator 16.0.0, SVG Export Plug-In . SVG Version: 6.00 Build 0)  -->
<!DOCTYPE svg PUBLIC "-//W3C//DTD SVG 1.1//EN" "http://www.w3.org/Graphics/SVG/1.1/DTD/svg11.dtd">
<svg version="1.1" id="Layer_1" xmlns="http://www.w3.org/2000/svg" xmlns:xlink="http://www.w3.org/1999/xlink" x="0px" y="0px"
	 width="327.959px" height="357.956px" viewBox="0 0 327.959 357.956" enable-background="new 0 0 327.959 357.956"
	 xml:space="preserve">
<ellipse fill-rule="evenodd" clip-rule="evenodd" fill="#F0EFEE" cx="246.834" cy="35.068" rx="19.667" ry="20.375"/>
<g>
	<path fill-rule="evenodd" clip-rule="evenodd" fill="#282723" d="M327.959,245.969c0,4.999,0,9.999,0,14.998
		c-0.337,0.991-0.916,1.968-0.975,2.975c-0.76,12.938-1.577,25.874-2.106,38.822c-0.404,9.92-4.437,17.648-12.46,23.528
		c-20.066,14.708-41.802,25.479-66.713,29.023c-5.59,0.796-11.156,1.755-16.733,2.64c-7.333,0-14.665,0-21.998,0
		c-0.168-0.267-0.303-0.735-0.509-0.771c-14.542-2.423-29.252-4.105-43.588-7.414c-12.517-2.889-24.745-7.241-36.838-11.662
		c-6.257-2.288-12.536-5.455-11.622-14.368c0.178-1.733-2.118-3.933-3.627-5.595c-12.663-13.945-26.167-27.209-37.901-41.89
		c-10.039-12.561-18.105-26.701-26.994-40.176c-12.563-19.046-20.168-40.462-29.178-61.207c-1.243-2.863-2.222-6.281,0.697-8.005
		c1.689-0.998,4.816,0.44,7.296,0.783c4.795-0.918,3.178-4.1,1.308-7.213c-10.267-17.095-17.252-35.522-22.328-54.732
		C2.481,101.128,1.231,96.561,0,91.988c0-4,0-7.999,0-11.999c4.44-5.037,7.271-0.759,11.192,3.152
		c-0.355-2.932-0.437-4.469-0.74-5.963c-1.319-6.504-2.894-12.964-3.93-19.511c-0.272-1.721,1.052-3.695,1.644-5.553
		c1.912,0.891,3.887,1.674,5.703,2.73c0.612,0.356,0.815,1.406,1.218,2.133C22.642,70.6,30.199,84.221,37.433,97.261
		c3.335,0,6.278,0,9.181,0c0-1.341-0.38-2.955,0.087-4.266c0.742-2.082,1.775-5.295,3.188-5.585c1.735-0.357,4.549,1.337,5.89,2.971
		c2.277,2.771,3.99,6.083,5.546,9.355c4.786,10.072,9.386,20.231,14.166,30.592c4.93-5.523,7.407-5.573,12.409-0.454
		c1.37,1.401,2.548,3.096,3.432,4.849c11.38,22.568,20.885,45.813,25.745,70.772c0.957,4.914,2.695,9.677,4.073,14.51
		c0.463-0.098,0.927-0.194,1.39-0.291c0.374-1.754,1.022-3.5,1.077-5.264c0.417-13.451,0.516-26.916,1.132-40.357
		c0.356-7.79,1.211-15.588,2.449-23.285c0.335-2.084,2.885-3.812,4.418-5.703c1.847,1.617,3.778,3.151,5.497,4.896
		c0.635,0.646,0.846,1.762,1.12,2.702c1.665,5.719,3.292,11.45,4.724,16.452c1.905-2.098,3.848-4.123,5.642-6.274
		c0.646-0.775,1.228-1.822,1.323-2.795c0.209-2.145-0.27-4.402,0.198-6.463c0.548-2.414,1.312-5.194,2.978-6.745
		c0.723-0.673,3.92,1.373,6.024,2.095c0.832,0.285,1.747,0.328,2.623,0.48c-0.137-0.98,0.05-2.203-0.469-2.899
		c-2.078-2.79-4.408-5.39-6.585-8.109c-8.976-11.202-17.035-23.127-21.505-36.771c-7.8-23.809-8.774-48.24-3.911-72.837
		c1.297-6.562,6.384-10.16,12.553-7.653c9.29,3.775,18.292,8.417,26.964,13.468c3.046,1.774,4.819,2.439,7.85,0.53
		c12.245-7.716,25.53-11.885,40.142-10.327c4.011,0.428,5.933-1,7.585-4.495C228.087,12.5,231.574,4.33,239.97,0
		c1.333,0,2.666,0,4,0c2.783,1.595,6.228,2.614,8.219,4.9c4.76,5.464,9.406,11.187,13.089,17.403
		c15.783,26.641,19.601,55.503,13.544,85.499c-2.71,13.42-6.323,27.146-20.339,34.248c-0.593,0.3-1.103,0.764-2.25,1.574
		c2.082,0.998,3.629,2.443,4.799,2.185c7.139-1.575,7.396-1.658,10.266,5.116c2.187,5.163,4.074,10.453,5.842,15.035
		c2.805,0,5.259,0,7.896,0c0.178-0.617,0.576-1.398,0.598-2.189c0.088-3.212,0.029-7.425,4.043-7.141
		c2.489,0.176,6.02,3.314,6.889,5.869c5.916,17.381,11.578,34.867,16.638,52.514c2.67,9.316,3.962,19.028,5.987,29.11
		C323.27,240.858,325.893,242.45,327.959,245.969z M146.869,92.058c0.081,0.313,0.161,0.625,0.242,0.938
		c0.414,1.325,0.827,2.649,1.241,3.975c0.175,0.404,0.35,0.809,0.524,1.213c0.464,1.247,0.927,2.494,1.391,3.741
		c0.563,0.463,1.127,0.925,1.69,1.388c0.017,0.491-0.157,1.116,0.079,1.454c7.677,10.98,14.806,22.417,23.293,32.734
		c6.666,8.101,17.093,5.676,26.231,6.071c16.85,0.729,31.188-7.181,45.761-13.906c5.003-2.309,9.937-5.398,11.996-11.335
		c4.455-12.848,6.837-25.993,6.273-39.62c-2.179-10.914-4.357-21.828-6.536-32.742c-2.049-5.902-3.898-11.202-7.742-16.671
		c-1.239-1.96-2.813-3.75-4.229-5.414c-1.186-1.639-2.37-3.278-3.557-4.917c-0.554-0.056-1.107-0.111-1.661-0.167
		c-2.808,7.427-5.614,14.854-8.422,22.281c-0.131,0.383-0.26,0.765-0.391,1.147c-0.728,0.159-1.454,0.318-2.182,0.477
		c-0.67-0.22-1.339-0.44-2.008-0.66c-0.254-0.059-0.509-0.118-0.763-0.176c-0.705-0.198-1.411-0.396-2.117-0.593
		c-1.372-0.198-2.745-0.396-4.118-0.594c-4.294-0.091-8.588-0.182-12.882-0.273c-0.332,0.036-0.664,0.073-0.996,0.109
		c-0.69,0.12-1.381,0.24-2.071,0.359c-0.314,0.036-0.629,0.072-0.943,0.108c-8.005,3.195-16.009,6.39-24.014,9.584
		c-0.314,0.145-0.628,0.29-0.942,0.435c-0.319,0.153-0.639,0.305-0.958,0.458c-0.818,0.436-1.637,0.872-2.455,1.308
		c-0.862,0.49-1.724,0.98-2.585,1.47c-0.79,0.518-1.58,1.036-2.37,1.553c-1.426-0.345-2.852-0.689-4.278-1.034
		c-6.153-7.734-14.123-12.753-23.943-16.376c-1.458,11.823-2.111,22.996-0.127,34.216c0.178,1.454,0.355,2.907,0.533,4.361
		c0.092,0.665,0.184,1.33,0.275,1.994c0.248,1.398,0.495,2.795,0.743,4.192c-0.076,0.088-0.234,0.221-0.215,0.257
		c0.101,0.184,0.247,0.343,0.377,0.511c0.478,2.355,0.957,4.71,1.435,7.065c0.146,0.372,0.292,0.743,0.438,1.115L146.869,92.058z
		 M98.042,170.979c-1.273-3.692-2.547-7.385-3.82-11.077c-0.293,0.111-0.586,0.222-0.879,0.333c0,3.256,0,6.511,0,9.767
		c-1.598,2.041-2.839,5.246-4.871,5.867c-3.632,1.11-4.107-2.752-5.197-5.269c-0.715-1.653-1.652-3.21-2.49-4.81
		c-0.313-1.595-0.354-3.307-0.981-4.767c-4.846-11.305-9.771-22.577-14.745-33.827c-2.776-6.279-5.691-12.497-8.024-17.604
		c-1.999,2.864-3.695,6.407-6.458,8.616c-0.9,0.719-4.583-2.043-7.18-3.304c-1.635,5.034-5.657,1.792-9.185,1.059
		c1.585,5.731,3.454,10.91,4.26,16.251c0.289,1.913-1.991,4.215-3.098,6.339c-2.04-1.065-5.048-1.605-5.957-3.283
		c-5.207-9.61-9.889-19.504-14.827-29.263c-0.625-1.234-1.705-2.238-2.753-3.578c-0.582,0.976-0.77,1.152-0.737,1.258
		c0.646,2.029,1.313,4.052,1.983,6.073c6.504,19.619,13.636,38.973,25.584,56.081c2.929,4.194,3.684,7.784-0.574,11.136
		c3.366,8.22,1.628,11.013-7.133,11.237c1.708,3.738,3.343,7.315,4.978,10.892c0.203,0.621,0.343,1.271,0.618,1.857
		c15.902,34.025,35.644,65.488,61.859,92.628c3.944,4.084,7.848,8.207,11.765,12.306c-0.699-13.97-1.552-27.37-1.972-40.785
		c-0.244-7.798,0.577-8.513,7.99-10.895c0-5.177,0.811-10.598-0.158-15.68c-2.548-13.375-5.54-26.689-8.997-39.86
		C104.584,189.304,101.081,180.203,98.042,170.979z M134.791,231.081c0.088,2.771,0.441,5.563,0.218,8.308
		c-0.886,10.87-1.951,21.727-2.951,32.589c-0.56,9.378-1.12,18.757-1.753,29.354c-4.314-7.088-8.005-13.152-11.697-19.216
		c-0.561,0.295-1.123,0.591-1.684,0.886c1.171,7.867,2.519,15.714,3.458,23.608c0.742,6.232,0.83,12.146,8.758,14.462
		c6.162,1.801,11.592,6.242,17.778,7.804c15.134,3.819,30.444,7.065,45.817,9.788c26.933,4.77,53.435,2.828,78.878-7.666
		c7.928-3.271,15.574-7.494,22.771-12.169c5.295-3.438,9.648-8.323,14.422-12.563c7.974-8.107,11.416-21.356,8.506-34.104
		c-3.33,5.582-6.395,10.719-9.459,15.855c-0.62-0.091-1.24-0.182-1.861-0.272c0-10.707,0.379-21.432-0.119-32.114
		c-0.399-8.58-1.86-17.11-2.851-25.662c-2.556-15.902-6.014-31.587-10.096-46.663c-3.548,0.752-6.035,1.278-9.11,1.93
		c0,1.535,0.038,3.491-0.009,5.446c-0.071,2.974,0.296,6.505-3.653,7.146c-4.013,0.65-4.694-2.754-5.549-5.669
		c-1.096-3.74-2.262-7.46-3.398-11.188c-1.019-6.136-1.977-12.284-3.119-18.397c-0.179-0.954-1.201-1.75-1.833-2.619
		c-0.938,0.8-2.161,1.432-2.755,2.436c-1.124,1.9-1.887,4.013-2.575,5.542c-6.746-4.865-13.019-9.731-19.688-13.973
		c-1.829-1.163-5.203-1.318-7.262-0.468c-13.724,5.668-28.014,7.03-42.554,5.749c-6.517-0.574-13.104-1.979-19.287-4.097
		c-3.455-1.184-4.709,0.085-6.584,2.062c-1.925,2.027-4.106,3.811-6.416,5.921c0,5.464-0.093,11.918,0.036,18.367
		c0.074,3.733-1.207,6.112-5.165,6.513c-0.66,1.035-1.814,2.04-1.88,3.112c-0.15,2.456,0.105,4.961,0.43,7.415
		c0.391,2.95-0.038,6.006-3.287,6.046c-1.967,0.024-4.748-2.065-5.772-3.957c-1.701-3.144-2.294-6.89-3.333-10.388
		c-2.028-6.83-4.042-13.663-6.062-20.495c-0.536,0.06-1.072,0.121-1.609,0.181c-0.169,14.686-0.339,29.37-0.508,44.056
		c0.65,4.339,1.3,8.679,1.95,13.018C134.22,228.356,134.505,229.718,134.791,231.081z"/>
	<path fill-rule="evenodd" clip-rule="evenodd" fill="#FBE655" d="M308.807,306.264c-4.773,4.24-9.127,9.125-14.422,12.563
		c-7.197,4.675-14.844,8.898-22.771,12.169c-25.443,10.494-51.945,12.436-78.878,7.666c-15.373-2.723-30.683-5.969-45.817-9.788
		c-6.186-1.562-11.616-6.003-17.778-7.804c-7.928-2.315-8.016-8.229-8.758-14.462c-0.939-7.895-2.287-15.741-3.458-23.608
		c0.562-0.295,1.123-0.591,1.684-0.886c3.691,6.063,7.382,12.128,11.697,19.216c0.633-10.597,1.193-19.976,1.753-29.354
		c4.417-0.041,8.848,0.09,13.239-0.264c0.924-0.074,2.204-1.851,2.375-2.986c0.113-0.745-1.334-2.255-2.323-2.521
		c-1.71-0.458-3.688,0.086-5.397-0.371c-1.117-0.298-2.758-1.591-2.79-2.487c-0.143-4.04,0.277-8.097,0.36-12.149
		c0.131-6.463,0.191-12.929,0.102-19.391c-0.003-0.256-1.846-0.485-2.833-0.728c-0.285-1.362-0.571-2.725-0.856-4.087
		c1.41-3.548,2.82-7.095,4.616-11.615c-2.12-0.453-4.343-0.928-6.565-1.402c0.169-14.686,0.339-29.37,0.508-44.056
		c0.537-0.06,1.073-0.121,1.609-0.181c2.02,6.832,4.034,13.665,6.062,20.495c1.039,3.498,1.632,7.244,3.333,10.388
		c1.024,1.892,3.806,3.981,5.772,3.957c3.249-0.04,3.678-3.096,3.287-6.046c-0.325-2.454-0.58-4.959-0.43-7.415
		c0.065-1.072,1.22-2.077,1.88-3.112c4.516,13.605,9.997,26.627,22.07,37.201c1.194-6.175,1.917-11.256,3.232-16.176
		c0.729-2.725-0.648-7.295,3.835-7.293c0.98,0,2.485,5.141,2.849,8.027c1.496,11.914,2.646,23.871,4.011,36.632
		c1.364-5.648,2.235-10.411,3.73-14.97c0.775-2.361,2.657-4.36,4.039-6.523c1.04,2.604,2.498,5.129,3.016,7.834
		c0.653,3.416,0.541,6.979,0.759,10.479c0.514,0.438,1.027,0.875,1.541,1.313c5.069-9.166,13.938-7.985,21.73-9.279
		c8.722-1.448,14.79-5.071,17.972-13.932c2.52-7.017,4.498-6.92,9.355-1.096c0-5.129-0.186-10.074,0.111-14.991
		c0.09-1.486,1.514-2.892,2.327-4.334c1.115,1.262,2.505,2.378,3.273,3.824c0.864,1.625,1.167,3.549,1.713,5.343
		c0.523,0.032,1.047,0.064,1.569,0.097c1.938-5.416,3.917-10.817,5.799-16.253c1.485-4.291,2.85-8.624,4.269-12.938
		c1.137,3.728,2.303,7.447,3.398,11.188c0.854,2.915,1.536,6.319,5.549,5.669c3.949-0.642,3.582-4.173,3.653-7.146
		c0.047-1.955,0.009-3.911,0.009-5.446c3.075-0.651,5.563-1.178,9.11-1.93c4.082,15.076,7.54,30.761,10.096,46.663
		c-0.686,1.136-1.993,2.294-1.955,3.404c0.279,8.092,0.852,16.173,1.279,24.26c0.137,2.57-0.472,5.336,0.278,7.687
		c2.247,7.042,2.135,13.847-0.664,20.647c-0.107-0.062-0.216-0.124-0.324-0.186c0.108,0.062,0.218,0.122,0.326,0.184
		c-0.156,1.308-0.271,2.622-0.476,3.922C300.487,296.198,303.902,303.865,308.807,306.264z"/>
	<path fill-rule="evenodd" clip-rule="evenodd" fill="#F0EFEE" d="M271.207,180.97c-1.419,4.314-2.783,8.647-4.269,12.938
		c-1.882,5.436-3.861,10.837-5.799,16.253c-0.522-0.032-1.046-0.064-1.569-0.097c-0.546-1.794-0.849-3.718-1.713-5.343
		c-0.769-1.446-2.158-2.563-3.273-3.824c-0.813,1.442-2.237,2.848-2.327,4.334c-0.297,4.917-0.111,9.862-0.111,14.991
		c-4.857-5.824-6.836-5.921-9.355,1.096c-3.182,8.86-9.25,12.483-17.972,13.932c-7.792,1.294-16.661,0.113-21.73,9.279
		c-0.514-0.438-1.027-0.875-1.541-1.313c-0.218-3.5-0.105-7.063-0.759-10.479c-0.518-2.705-1.976-5.229-3.016-7.834
		c-1.382,2.163-3.264,4.162-4.039,6.523c-1.495,4.559-2.366,9.321-3.73,14.97c-1.364-12.761-2.515-24.718-4.011-36.632
		c-0.363-2.887-1.868-8.027-2.849-8.027c-4.483-0.002-3.105,4.568-3.835,7.293c-1.315,4.92-2.038,10.001-3.232,16.176
		c-12.073-10.574-17.555-23.596-22.07-37.201c3.958-0.4,5.238-2.779,5.165-6.513c-0.128-6.449-0.036-12.903-0.036-18.367
		c2.31-2.11,4.491-3.894,6.416-5.921c1.875-1.976,3.129-3.246,6.584-2.062c6.183,2.118,12.771,3.522,19.287,4.097
		c14.54,1.281,28.83-0.081,42.554-5.749c2.059-0.85,5.433-0.695,7.262,0.468c6.669,4.242,12.941,9.107,19.688,13.973
		c0.688-1.529,1.451-3.642,2.575-5.542c0.594-1.004,1.816-1.636,2.755-2.436c0.632,0.869,1.654,1.665,1.833,2.619
		C269.23,168.687,270.188,174.834,271.207,180.97z"/>
	<path fill-rule="evenodd" clip-rule="evenodd" fill="#FBE655" d="M80.786,165.79c0.838,1.6,1.775,3.157,2.49,4.81
		c1.09,2.517,1.564,6.379,5.197,5.269c2.032-0.621,3.273-3.826,4.87-5.867c1.566,0.326,3.133,0.651,4.7,0.977
		c3.038,9.223,6.542,18.325,9.002,27.699c3.458,13.171,6.449,26.485,8.997,39.86c0.969,5.082,0.158,10.503,0.158,15.68
		c-7.413,2.382-8.234,3.097-7.99,10.895c0.42,13.415,1.272,26.815,1.972,40.785c-3.917-4.099-7.82-8.222-11.765-12.306
		c-26.216-27.14-45.957-58.603-61.859-92.628c-0.274-0.587-0.415-1.236-0.618-1.857c5.086-5.564,8.232-13.324,17.027-14.918
		c-3.174-7.319-6.472-14.535-9.381-21.905c-0.733-1.856-0.219-4.206-0.278-6.329c1.706,1.126,3.776,1.941,5.05,3.436
		c4.094,4.803,7.894,9.856,11.807,14.813c0.369-1.382-0.125-2.355-0.04-3.275c0.173-1.853,0.661-3.676,1.019-5.512
		c1.81,0.845,3.968,1.32,5.349,2.62c2.125,2,3.718,4.567,5.536,6.894c0.171,0.461,0.342,0.922,0.079,0.211
		c0.604,0.472,0.222,0.173-0.161-0.126C71.391,167.985,72.725,166.593,80.786,165.79z"/>
	<path fill-rule="evenodd" clip-rule="evenodd" fill="#F0EFEE" d="M180.959,50.57c8.005-3.194,16.009-6.39,24.014-9.584
		c0.314-0.036,0.629-0.072,0.943-0.108c0.69-0.12,1.381-0.24,2.071-0.359c0.331-0.037,0.664-0.073,0.996-0.109
		c4.294,0.091,8.588,0.182,12.882,0.273c1.373,0.198,2.746,0.396,4.118,0.593c0.706,0.198,1.412,0.396,2.117,0.593l0.337,0.279
		l0.426-0.103c0.669,0.22,1.338,0.44,2.008,0.66c0.728-0.159,1.454-0.318,2.182-0.477c0.131-0.382,0.26-0.765,0.391-1.147
		c0.791,0.322,1.583,0.645,2.374,0.967c7.257,2.35,14.515,4.7,21.985,7.119c-0.15-0.965-0.322-2.07-0.494-3.177
		c0.582-0.007,1.164-0.015,1.746-0.022c2.179,10.914,4.357,21.828,6.536,32.742c-4.884,0.781-9.769,1.563-14.653,2.346
		c-0.832-1.2-1.404-2.922-2.55-3.491c-2.47-1.228-5.264-2.504-7.86-2.384c-0.888,0.041-1.685,4.169-2.323,6.485
		c-0.287,1.041-0.081,2.217-0.1,3.333c-7.524,2.555-14.054,6.47-18.341,13.442c-3.261,0.561-6.521,1.123-9.781,1.685
		c-7.34-2.043-14.679-4.087-22.019-6.13c-1.031-2.202-2.119-4.378-3.078-6.61c-1.266-2.944-3.69-4.271-6.385-3.011
		c-1.659,0.776-2.835,3.076-3.671,4.941c-0.563,1.254-0.152,2.943-0.178,4.438c-7.488,2.795-14.976,5.59-22.464,8.386
		c-0.641-0.072-1.281-0.145-1.922-0.217c-0.464-1.247-0.927-2.494-1.391-3.741c-0.175-0.404-0.35-0.808-0.524-1.212
		c-0.414-1.325-0.827-2.65-1.241-3.975c0.101-0.115,0.306-0.3,0.285-0.332c-0.149-0.22-0.346-0.408-0.527-0.606
		c0,0,0.018,0.036,0.018,0.035c-0.146-0.372-0.292-0.743-0.438-1.114c-0.478-2.355-0.957-4.709-1.435-7.064
		c0.201-0.311,0.147-0.567-0.163-0.769c-0.248-1.397-0.496-2.794-0.743-4.191c-0.092-0.665-0.184-1.33-0.275-1.995
		c-0.178-1.454-0.355-2.908-0.533-4.361c1.252-0.434,2.505-0.868,3.758-1.301c5.144-4.182,10.339-8.303,15.391-12.594
		c1.084-0.92,1.647-2.455,2.45-3.705c0.823-0.08,1.647-0.16,2.471-0.239c1.427,0.345,2.853,0.689,4.278,1.034
		c0.79-0.517,1.58-1.035,2.37-1.553c0.861-0.49,1.723-0.979,2.585-1.469c0.818-0.436,1.637-0.873,2.455-1.308
		c0.319-0.153,0.639-0.305,0.958-0.458C180.33,50.86,180.645,50.715,180.959,50.57z"/>
	<path fill-rule="evenodd" clip-rule="evenodd" fill="#FBE655" d="M187.964,93.996c7.34,2.043,14.679,4.087,22.019,6.13
		c-0.632,3.159-0.867,6.109,2.152,8.479c0.64,0.502,0.413,2.358,0.278,3.556c-0.61,5.444-1.456,10.864-1.962,16.316
		c-0.269,2.897,1.397,3.856,4.144,3.017c4.196-1.281,8.329-3.009,12.624-3.661c3.822-0.581,4.146-2.591,2.975-5.142
		c-1.929-4.2-4.457-8.121-6.557-12.248c-0.69-1.356-0.763-3.014-1.245-4.492c-0.823-2.521-1.747-5.008-2.628-7.509
		c4.287-6.973,10.816-10.887,18.341-13.442c0.759,2.699,1.433,5.427,2.299,8.091c0.952,2.93,2.358,6.453,5.94,5.297
		c2.283-0.737,4.907-3.722,5.352-6.082c0.673-3.575-0.417-7.483-0.758-11.249c4.885-0.782,9.77-1.564,14.653-2.346
		c0.563,13.627-1.818,26.772-6.273,39.62c-2.06,5.938-6.993,9.027-11.996,11.335c-14.573,6.725-28.911,14.636-45.761,13.906
		c-9.139-0.396-19.565,2.029-26.231-6.071c-8.487-10.317-15.616-21.754-23.293-32.734c-0.236-0.338-0.062-0.963-0.079-1.455
		c0.077-0.391,0.154-0.781,0.231-1.171c7.488-2.796,14.976-5.591,22.464-8.386c0.457,3.104,0.7,6.26,1.431,9.298
		c0.767,3.188,3.025,5.854,6.335,4.817c2.127-0.667,4.268-3.313,5.1-5.555C188.439,99.829,187.879,96.792,187.964,93.996z"/>
	<path fill-rule="evenodd" clip-rule="evenodd" fill="#F0EFEE" d="M72.028,174.93c-1.818-2.326-3.411-4.893-5.536-6.893
		c-1.381-1.3-3.539-1.775-5.349-2.62c-0.358,1.836-0.846,3.659-1.019,5.512c-0.085,0.92,0.409,1.893,0.04,3.275
		c-3.913-4.957-7.712-10.01-11.807-14.813c-1.273-1.495-3.344-2.31-5.05-3.436c0.059,2.123-0.456,4.472,0.278,6.329
		c2.909,7.37,6.207,14.585,9.381,21.905c-8.795,1.594-11.941,9.354-17.027,14.918c-1.634-3.576-3.269-7.153-4.978-10.892
		c8.761-0.224,10.499-3.017,7.133-11.237c4.257-3.353,3.502-6.942,0.574-11.136c-11.948-17.108-19.08-36.462-25.584-56.081
		c-0.67-2.021-1.338-4.044-1.983-6.073c-0.033-0.105,0.155-0.282,0.737-1.258c1.048,1.339,2.129,2.343,2.753,3.578
		c4.938,9.758,9.62,19.652,14.827,29.263c0.909,1.678,3.917,2.218,5.957,3.283c1.107-2.124,3.386-4.426,3.098-6.339
		c-0.806-5.341-2.675-10.52-4.26-16.251c3.528,0.733,7.55,3.975,9.185-1.059c2.597,1.261,6.28,4.023,7.18,3.304
		c2.763-2.209,4.459-5.752,6.458-8.616c2.333,5.107,5.249,11.325,8.024,17.604c4.974,11.25,9.898,22.521,14.745,33.827
		c0.626,1.46,0.668,3.172,0.981,4.767c-8.061,0.803-9.395,2.195-8.84,9.225L72.028,174.93z"/>
	<path fill-rule="evenodd" clip-rule="evenodd" fill="#FBE655" d="M308.807,306.264c-4.904-2.399-8.319-10.066-7.319-16.379
		c0.205-1.3,0.319-2.614,0.476-3.922l-0.002,0.002c2.799-6.801,2.911-13.605,0.664-20.647c-0.75-2.351-0.142-5.116-0.278-7.687
		c-0.428-8.087-1-16.168-1.279-24.26c-0.038-1.11,1.27-2.269,1.955-3.404c0.99,8.552,2.451,17.082,2.851,25.662
		c0.498,10.683,0.119,21.407,0.119,32.114c0.621,0.091,1.241,0.182,1.861,0.272c3.064-5.137,6.129-10.273,9.459-15.855
		C320.223,284.908,316.78,298.157,308.807,306.264z"/>
	<path fill-rule="evenodd" clip-rule="evenodd" fill="#FBE655" d="M134.791,231.081c0.986,0.242,2.83,0.472,2.833,0.728
		c0.089,6.462,0.029,12.928-0.102,19.391c-0.083,4.053-0.503,8.109-0.36,12.149c0.032,0.896,1.673,2.189,2.79,2.487
		c1.71,0.457,3.688-0.087,5.397,0.371c0.989,0.266,2.436,1.775,2.323,2.521c-0.171,1.136-1.451,2.912-2.375,2.986
		c-4.392,0.354-8.823,0.223-13.239,0.264c1-10.862,2.065-21.719,2.951-32.589C135.232,236.643,134.879,233.851,134.791,231.081z"/>
	<path fill-rule="evenodd" clip-rule="evenodd" fill="#F0EFEE" d="M147.058,71.297c-1.253,0.434-2.505,0.868-3.758,1.301
		c-1.985-11.22-1.332-22.393,0.126-34.216c9.82,3.624,17.79,8.643,23.943,16.376c-0.823,0.08-1.647,0.159-2.471,0.239
		c-5.945-4.927-11.437-10.55-20.072-13.4c0,8.916-0.117,16.981,0.101,25.037C144.971,68.207,146.314,69.744,147.058,71.297z"/>
	<path fill-rule="evenodd" clip-rule="evenodd" fill="#FBE655" d="M131.985,213.976c2.222,0.475,4.445,0.949,6.565,1.402
		c-1.796,4.521-3.206,8.067-4.616,11.615C133.285,222.655,132.635,218.315,131.985,213.976z"/>
	<path fill-rule="evenodd" clip-rule="evenodd" fill="#FBE655" d="M98.042,170.979c-1.567-0.326-3.134-0.651-4.7-0.977
		c0.001-3.256,0.001-6.511,0.001-9.767c0.293-0.111,0.586-0.222,0.879-0.333C95.495,163.595,96.769,167.287,98.042,170.979z"/>
	<path fill-rule="evenodd" clip-rule="evenodd" fill="#D3CAC2" d="M225.983,41.276c-1.372-0.198-2.745-0.396-4.118-0.593
		C223.238,40.88,224.611,41.078,225.983,41.276z"/>
	<path fill-rule="evenodd" clip-rule="evenodd" fill="#D3CAC2" d="M143.833,76.96c0.092,0.665,0.184,1.33,0.275,1.995
		C144.017,78.29,143.925,77.625,143.833,76.96z"/>
	<path fill-rule="evenodd" clip-rule="evenodd" fill="#D3CAC2" d="M174.019,54.24c-0.79,0.518-1.58,1.036-2.37,1.553
		C172.438,55.276,173.229,54.758,174.019,54.24z"/>
	<path fill-rule="evenodd" clip-rule="evenodd" fill="#D3CAC2" d="M179.059,51.463c-0.818,0.436-1.637,0.872-2.455,1.308
		C177.422,52.334,178.24,51.898,179.059,51.463z"/>
	<path fill-rule="evenodd" clip-rule="evenodd" fill="#D3CAC2" d="M233.053,42.229c-0.728,0.159-1.454,0.318-2.182,0.477
		C231.599,42.546,232.325,42.388,233.053,42.229z"/>
	<path fill-rule="evenodd" clip-rule="evenodd" fill="#D3CAC2" d="M152.188,102.141c-0.077,0.39-0.154,0.78-0.231,1.171
		c-0.563-0.462-1.127-0.925-1.69-1.388C150.907,101.996,151.547,102.068,152.188,102.141z"/>
	<path fill-rule="evenodd" clip-rule="evenodd" fill="#D3CAC2" d="M146.449,90.979c0.146,0.371,0.292,0.743,0.438,1.114
		C146.74,91.722,146.595,91.351,146.449,90.979z"/>
	<path fill-rule="evenodd" clip-rule="evenodd" fill="#D3CAC2" d="M146.869,92.058c0.181,0.198,0.377,0.386,0.527,0.606
		c0.021,0.031-0.185,0.217-0.285,0.332C147.03,92.683,146.949,92.371,146.869,92.058z"/>
	<path fill-rule="evenodd" clip-rule="evenodd" fill="#D3CAC2" d="M148.351,96.97c0.175,0.404,0.35,0.808,0.524,1.212
		C148.701,97.779,148.526,97.375,148.351,96.97z"/>
	<path fill-rule="evenodd" clip-rule="evenodd" fill="#D3CAC2" d="M180.959,50.57c-0.314,0.145-0.629,0.29-0.942,0.435
		C180.331,50.86,180.645,50.715,180.959,50.57z"/>
	<path fill-rule="evenodd" clip-rule="evenodd" fill="#D3CAC2" d="M228.863,42.045l-0.426,0.103l-0.337-0.279
		C228.354,41.928,228.609,41.986,228.863,42.045z"/>
	<path fill-rule="evenodd" clip-rule="evenodd" fill="#D3CAC2" d="M205.916,40.877c-0.314,0.036-0.629,0.072-0.943,0.108
		C205.287,40.95,205.602,40.914,205.916,40.877z"/>
	<path fill-rule="evenodd" clip-rule="evenodd" fill="#D3CAC2" d="M144.852,83.146c0.31,0.202,0.364,0.458,0.163,0.769
		c-0.13-0.168-0.277-0.328-0.377-0.512C144.617,83.367,144.775,83.234,144.852,83.146z"/>
	<path fill-rule="evenodd" clip-rule="evenodd" fill="#D3CAC2" d="M208.983,40.409c-0.332,0.036-0.665,0.072-0.996,0.109
		C208.319,40.482,208.651,40.445,208.983,40.409z"/>
	<path fill-rule="evenodd" clip-rule="evenodd" fill="#7F7E7A" d="M301.963,285.963c-0.108-0.062-0.218-0.122-0.326-0.184
		c0.108,0.062,0.217,0.124,0.324,0.186L301.963,285.963z"/>
	<path fill-rule="evenodd" clip-rule="evenodd" fill="#F0EFEE" d="M71.946,175.015c0.383,0.299,0.766,0.598,0.161,0.126
		c0.264,0.711,0.093,0.25-0.079-0.211L71.946,175.015z"/>
	<path fill-rule="evenodd" clip-rule="evenodd" fill="#282723" d="M219.764,98.441c0.881,2.501,1.805,4.988,2.628,7.509
		c0.482,1.478,0.555,3.136,1.245,4.492c2.1,4.127,4.628,8.048,6.557,12.248c1.172,2.551,0.848,4.561-2.975,5.142
		c-4.295,0.652-8.428,2.38-12.624,3.661c-2.746,0.839-4.412-0.12-4.144-3.017c0.506-5.452,1.352-10.872,1.962-16.316
		c0.135-1.198,0.361-3.053-0.278-3.556c-3.02-2.37-2.784-5.32-2.152-8.479C213.243,99.564,216.503,99.002,219.764,98.441z
		 M219.562,112.544c-0.804,0.137-1.607,0.274-2.411,0.412c-0.483,3.872-0.968,7.744-1.451,11.615
		c0.443,0.356,0.888,0.712,1.331,1.068c2.279-1.233,6.616-2.817,6.477-3.637C222.947,118.721,220.997,115.676,219.562,112.544z"/>
	<path fill-rule="evenodd" clip-rule="evenodd" fill="#38372E" d="M147.058,71.297c-0.744-1.553-2.087-3.09-2.13-4.662
		c-0.218-8.056-0.101-16.121-0.101-25.037c8.635,2.85,14.127,8.474,20.072,13.4c-0.803,1.25-1.366,2.785-2.45,3.705
		C157.397,62.995,152.202,67.116,147.058,71.297z"/>
	<path fill-rule="evenodd" clip-rule="evenodd" fill="#282723" d="M250.938,81.056c0.341,3.766,1.431,7.674,0.758,11.249
		c-0.444,2.359-3.068,5.345-5.352,6.082c-3.582,1.156-4.988-2.367-5.94-5.297c-0.866-2.664-1.54-5.392-2.299-8.091
		c0.019-1.115-0.188-2.292,0.1-3.333c0.639-2.316,1.436-6.444,2.323-6.485c2.597-0.12,5.391,1.156,7.86,2.384
		C249.533,78.134,250.105,79.856,250.938,81.056z M245.197,92.891c3.136-4.683,1.849-10.055-2.71-13.416
		C243.482,84.404,244.341,88.647,245.197,92.891z"/>
	<path fill-rule="evenodd" clip-rule="evenodd" fill="#282723" d="M187.964,93.996c-0.085,2.797,0.476,5.833-0.446,8.319
		c-0.832,2.242-2.973,4.889-5.1,5.555c-3.31,1.036-5.568-1.629-6.335-4.817c-0.73-3.039-0.974-6.194-1.431-9.298
		c0.025-1.495-0.385-3.185,0.178-4.438c0.836-1.865,2.012-4.166,3.671-4.941c2.694-1.261,5.119,0.066,6.385,3.011
		C185.845,89.618,186.933,91.794,187.964,93.996z M181.2,89.25c-0.745,0.124-1.489,0.248-2.234,0.372
		c0.655,4.458,1.31,8.915,1.965,13.372c0.805-0.126,1.609-0.252,2.414-0.378C182.63,98.161,181.915,93.706,181.2,89.25z"/>
	<path fill-rule="evenodd" clip-rule="evenodd" fill="#F0EFEE" d="M219.562,112.544c1.436,3.132,3.386,6.177,3.945,9.458
		c0.14,0.82-4.197,2.404-6.477,3.637c-0.443-0.356-0.888-0.712-1.331-1.068c0.483-3.872,0.968-7.744,1.451-11.615
		C217.954,112.818,218.758,112.681,219.562,112.544z"/>
	<path fill-rule="evenodd" clip-rule="evenodd" fill="#D3CAC2" d="M245.197,92.891c-0.856-4.243-1.715-8.486-2.71-13.416
		C247.046,82.836,248.333,88.208,245.197,92.891z"/>
	<path fill-rule="evenodd" clip-rule="evenodd" fill="#D3CAC2" d="M181.2,89.25c0.715,4.455,1.43,8.91,2.145,13.365
		c-0.805,0.126-1.609,0.252-2.414,0.378c-0.655-4.458-1.31-8.915-1.965-13.372C179.711,89.498,180.455,89.375,181.2,89.25z"/>
	<path fill-rule="evenodd" clip-rule="evenodd" fill="#38372E" d="M255.756,43.191c0.172,1.106,1.896,5.012,2.047,5.977
		c-7.471-2.419-14.729-4.769-21.984-7.119c2.211-6.298,4.422-12.596,6.633-18.894c1.587-0.625,4.769,4.63,6.966,7.789
		C251.855,36.305,253.317,37.83,255.756,43.191z"/>
</g>
</svg>
