<?xml version="1.0" encoding="utf-8"?>
<!-- Generator: Adobe Illustrator 16.0.0, SVG Export Plug-In . SVG Version: 6.00 Build 0)  -->
<!DOCTYPE svg PUBLIC "-//W3C//DTD SVG 1.1//EN" "http://www.w3.org/Graphics/SVG/1.1/DTD/svg11.dtd">
<svg version="1.1" id="Layer_1" xmlns="http://www.w3.org/2000/svg" xmlns:xlink="http://www.w3.org/1999/xlink" x="0px" y="0px"
	 width="253.037px" height="445.944px" viewBox="0 0 253.037 445.944" enable-background="new 0 0 253.037 445.944"
	 xml:space="preserve">
<g>
	<path fill-rule="evenodd" clip-rule="evenodd" fill="#282722" d="M144.051,0c1.666,0,3.333,0,4.999,0
		c2.42,1.56,5.117,2.816,7.215,4.729c18.139,16.533,30.19,36.632,36.076,60.59c5.967,24.284,4.919,48.116-3.672,71.478
		c-2.937,7.986-7.333,15.437-11.029,23.064c4.105,5.812,8.243,11.618,12.329,17.462c11.789,16.858,22.332,34.53,29.912,53.615
		c7.677,19.329,14.049,39.189,20.602,58.947c5.771,17.398,8.592,35.44,10.459,53.637c0.665,6.481,1.396,12.955,2.096,19.433
		c0,8.999,0,17.998,0,26.996c-1.662,2.159-2.968,4.771-5.042,6.408c-23.117,18.242-49.17,30.629-77.773,37.273
		c-16.138,3.748-32.561,6.278-48.875,9.252c-6.403,1.167-12.858,2.048-19.291,3.06c-10.665,0-21.331,0-31.996,0
		c-0.988-0.389-1.952-1.037-2.966-1.128c-19.078-1.716-35.76-8.604-48.584-23.191c-3.061-3.481-5.919-7.778-7.049-12.169
		c-1.629-6.326-2.179-13.084-2.162-19.654c0.059-23.06-0.605-46.212,1.25-69.146c1.553-19.212,5.355-38.379,9.791-57.182
		c4.541-19.249,10.698-38.15,16.885-56.962c2.76-8.392,7.328-16.19,10.715-23.482c-8.033-8.255-16.529-15.549-23.265-24.212
		c-13.219-17.002-21.162-36.516-23.985-57.999c-0.174-1.324-0.682-3.771-0.682-5.146c0-7.666-0.039-23.278,0.069-24.12
		c1.818-14.091,5.426-27.639,12.071-40.28c2.928-5.571,6.738-7.657,12.225-4.814c8.174,4.234,16.086,9.142,23.535,14.553
		c5.956,4.327,11.056,9.832,16.622,14.891c15.15-8.303,31.765-10.627,48.372-12.742c4.337-0.552,6.544-2.161,8.375-6.187
		C127.298,23.725,132.609,9.942,144.051,0z M136.226,418.166c1.953-0.684,3.906-1.368,5.858-2.053
		c0.707-0.27,1.414-0.538,2.12-0.808c2.11-1.009,4.221-2.019,6.332-3.027c5.517-3.719,11.033-7.438,16.55-11.156
		c1.291-0.603,2.816-0.94,3.839-1.846c19.553-17.295,20.369-41.339,12.705-60.607c-3.99-10.035-12.121-13.949-22.539-11.524
		c-2.197,0.512-4.095,2.314-6.13,3.523c1.639,1.987,3.251,3.999,4.946,5.938c0.277,0.318,0.917,0.323,1.393,0.467
		c7.342,2.217,11.255,7.66,12.601,14.723c2.631,13.817-4.034,24.345-12.917,33.925c-1.536,1.656-2.914,3.46-4.365,5.195
		c-10.237,4.931-20.474,9.861-30.712,14.792c-1.315,0.345-2.631,0.69-3.946,1.036c-0.626,0.125-1.252,0.25-1.878,0.375
		c-3.011,0.611-6.021,1.223-9.032,1.834c-1.998,0.322-3.997,0.645-5.994,0.967c-4.01,0.307-8.021,0.614-12.031,0.921
		c-4.312-0.021-8.624-0.044-12.936-0.065c-5.351-0.892-10.701-1.783-16.051-2.675c-0.933-0.253-1.866-0.505-2.799-0.757
		c-1.69-0.553-3.38-1.106-5.071-1.659c-9.557-4.467-19.114-8.935-28.684-13.408c-1.915,11.517,4.862,24.256,20.226,28.817
		c3.712,1.64,7.278,3.995,11.164,4.794c16.332,3.359,32.776,2.488,49.023-0.534c9.545-1.775,18.86-4.795,28.278-7.256
		L136.226,418.166z M163.334,37.927c-4.5-6.236-8.999-12.473-13.966-19.357c-1.583,2.292-2.557,3.393-3.186,4.663
		c-3.67,7.419-7.323,14.85-10.816,22.354c-0.583,1.251-0.357,2.877-0.505,4.331c-1.588,5.986-6.165,6.548-11.471,7.304
		c-20.581,2.933-41.031,6.688-59.982,15.813c-3.219,1.55-4.963,0.751-7.262-1.556c-6.561-6.588-13.257-13.061-20.195-19.248
		c-3.504-3.125-7.647-5.536-11.994-8.619c-1.161,3.068-2.062,5.177-2.765,7.35c-7.763,23.982-7.139,47.873,1.65,71.383
		c2.569,6.871,6.779,13.129,10.237,19.668c7.567,13.31,18.207,23.646,31.237,31.451c33.142,19.852,73.407,11.643,96.519-19.249
		c10.137-13.548,15.418-28.884,18.12-45.326c2.377-20.47-0.162-40.177-9.129-58.887c-0.556-1.096-1.112-2.191-1.669-3.287
		C166.549,43.786,164.941,40.856,163.334,37.927z M25.972,335.958c-0.03,0.661-0.061,1.322-0.091,1.982
		c-0.172,2.657-0.345,5.314-0.517,7.973c-0.144,6.931-0.382,13.861-0.343,20.791c0.006,1.218,1.171,2.429,1.8,3.643
		c30.732,23.982,64.315,30.354,101.192,16.38c3.103-1.549,6.205-3.099,9.307-4.648c1.473-0.963,2.883-2.043,4.428-2.87
		c7.856-4.207,13.205-10.452,15.753-19.039c0.971-3.271,0.462-5.63-3.028-7.33c-2.948-1.437-5.656-3.533-8.149-5.707
		c-12.356-10.775-10.778-26.601,3.255-33.643c18.768-9.418,41.226-1.218,49.159,18.224c8.189,20.069,8.1,40.154-0.818,60.055
		c-2.232,3.406-4.463,6.813-6.694,10.221c-0.215,0.167-0.339,0.387-0.37,0.658c-3.007,3.083-6.013,6.168-9.02,9.252
		c0.335,0.463,0.67,0.926,1.005,1.389c3.398-1.464,6.797-2.929,10.195-4.395c0.684-0.278,1.368-0.559,2.051-0.838
		c4.324-2.025,8.648-4.05,12.974-6.075c7.921-4.825,15.834-9.666,23.77-14.47c3.321-2.012,4.391-4.821,4.371-8.739
		c-0.144-29.436-3.72-58.355-11.982-86.672c-8.972-30.748-20.073-60.59-36.637-88.167c-0.51-0.849-1.647-1.321-2.492-1.97
		c-3.591-11.364-11.692-19.748-18.526-29.205c-30.802,28.339-65.047,34.013-103.931,17.977c-3.195,6.675-6.531,13.303-9.52,20.083
		c-0.956,2.169-0.993,4.742-1.45,7.131c-0.686,0.766-1.699,1.419-2.004,2.314c-2.463,7.227-4.792,14.498-7.163,21.757
		c-0.816,3.316-1.632,6.635-2.448,9.951c-0.284,0.995-0.568,1.99-0.853,2.984c-0.614,3.013-1.229,6.026-1.843,9.039
		c-0.523,1.96-1.046,3.921-1.568,5.882c-0.968,4.65-1.937,9.301-2.905,13.951C30.578,301.205,28.275,318.582,25.972,335.958z"/>
	<path fill-rule="evenodd" clip-rule="evenodd" fill="#FBE655" d="M35.785,269.875c0.522-1.961,1.045-3.922,1.572-5.881
		c1.918-2.32,3.834-4.643,6.097-7.387c-2.144-0.832-3.201-1.242-4.257-1.653c0.284-0.994,0.568-1.989,0.853-2.984
		c0.94-0.502,2.511-0.824,2.713-1.536c0.869-3.063,1.337-6.241,1.969-9.469c-0.777,0.367-1.506,0.71-2.234,1.054
		c2.37-7.259,4.699-14.53,7.163-21.757c0.305-0.896,1.318-1.549,2.004-2.314c1.124,2.162,2.397,4.26,3.349,6.495
		c7.748,18.187,17.195,35.248,31.46,49.3c28.33,27.908,77.112,20.348,89.752-21.616c3.565-11.834,4.632-24.425,6.783-36.68
		c0.786-4.479,1.393-8.988,2.083-13.484c0.845,0.648,1.982,1.121,2.492,1.97c16.563,27.577,27.665,57.419,36.637,88.167
		c8.263,28.316,11.839,57.236,11.982,86.672c0.02,3.918-1.05,6.728-4.371,8.739c-7.936,4.804-15.849,9.645-23.771,14.47
		c-0.794-0.687-1.763-2.074-2.351-1.929c-1.843,0.458-3.778,1.201-5.239,2.377c-2.005,1.614-3.608,3.728-5.383,5.627
		c-0.684,0.279-1.367,0.56-2.051,0.839c-0.727-2.083-1.454-4.165-2.18-6.247c0.031-0.271,0.154-0.491,0.369-0.659
		c6.368-0.17,9.416-4.822,6.695-10.22c8.918-19.9,9.008-39.985,0.818-60.055c-7.933-19.441-30.391-27.642-49.159-18.224
		c-14.033,7.042-15.611,22.867-3.255,33.643c2.493,2.174,5.201,4.271,8.149,5.707c3.49,1.7,3.999,4.059,3.028,7.33
		c-2.548,8.587-7.896,14.832-15.753,19.039c-1.545,0.827-2.956,1.907-4.429,2.869c-6.454-1.462-8.601-0.39-9.306,4.649
		c-36.877,13.975-70.46,7.603-101.191-16.381c0.331-2.698,0.891-5.39,0.942-8.092c0.098-5.147-0.055-10.302-0.263-15.446
		c-0.013-0.327-1.393-0.598-2.137-0.895c0.172-2.658,0.345-5.315,0.518-7.973c0.536-0.391,1.071-0.782,1.605-1.173
		c-0.504-0.27-1.009-0.539-1.514-0.81c2.303-17.377,4.605-34.754,6.909-52.13c0.602,1.572,1.204,3.144,1.934,5.054
		c0.207-1.854-0.148-3.69,0.608-4.64C40.017,278.486,40.234,274.304,35.785,269.875z"/>
	<path fill-rule="evenodd" clip-rule="evenodd" fill="#F1F0F0" d="M185.09,201.962c-0.689,4.496-1.297,9.006-2.083,13.484
		c-2.151,12.255-3.218,24.846-6.783,36.68c-12.64,41.964-61.422,49.524-89.752,21.616c-14.265-14.052-23.712-31.113-31.46-49.3
		c-0.952-2.235-2.225-4.333-3.349-6.495c0.457-2.389,0.494-4.962,1.45-7.131c2.989-6.78,6.325-13.408,9.52-20.083
		c38.884,16.036,73.129,10.362,103.931-17.977C173.398,182.214,181.499,190.598,185.09,201.962z"/>
	<path fill-rule="evenodd" clip-rule="evenodd" fill="#F1F0F0" d="M169.825,50.002c8.968,18.71,11.506,38.417,9.129,58.887
		c-1.76-0.408-3.5-1.015-5.282-1.188c-6.844-0.665-13.702-1.19-20.556-1.769c-0.493-0.656-1.048-1.275-1.467-1.976
		c-3.624-6.064-9.34-8.339-15.646-6.196c-5.828,1.98-8.808,7.039-8.223,13.78c0.125,1.447-0.069,2.924-0.116,4.387
		c-7.723,3.618-12.305,9.845-14.795,17.811c-1.269,0.101-2.538,0.202-3.807,0.304c-6.502-8.54-15.256-12.673-25.848-13.21
		c-3.388-4.775-7.219-8.848-13.849-7.598c-6.333,1.194-9.545,5.467-10.816,11.495c-10.428,2.907-18.843,8.777-25.471,17.283
		c-3.458-6.539-7.668-12.797-10.237-19.668c-8.789-23.51-9.414-47.401-1.65-71.383c0.703-2.173,1.604-4.282,2.765-7.35
		c4.347,3.083,8.49,5.494,11.994,8.619c6.938,6.188,13.634,12.66,20.195,19.248c2.298,2.308,4.042,3.106,7.262,1.556
		c18.951-9.125,39.401-12.88,59.982-15.813c5.307-0.756,9.883-1.318,11.471-7.304c1.052,0.023,2.103,0.046,3.155,0.069
		c1.312,0.698,2.62,1.984,3.937,1.993c6.02,0.037,12.042-0.285,18.063-0.478c0.204,0.98,0.409,1.961,0.614,2.942
		c0.266,0.012,0.532,0.024,0.798,0.036c0.219-0.972,0.439-1.944,0.659-2.916c2.74-0.495,2.313-2.151,1.402-3.924
		c-1.554-3.022-3.149-6.023-4.728-9.033c1.524-0.226,3.048-0.453,4.573-0.679c1.607,2.929,3.215,5.859,4.822,8.788
		C168.713,47.811,169.269,48.906,169.825,50.002z M21.313,98.535c10.402-7.92,20.49-15.602,31.432-23.933
		c-8.436-7.974-17.089-16.154-26.688-25.228C20.896,66.625,19.096,82.348,21.313,98.535z"/>
	<path fill-rule="evenodd" clip-rule="evenodd" fill="#FBE655" d="M83.215,120.833c10.592,0.537,19.346,4.67,25.848,13.21
		c-2.255,2.636-6.735,4.399-5.25,8.688c1.198,3.462,3.852,6.419,5.974,9.78c-2.917,3.409-6.376,5.594-11.214,4.225
		c-2.932-0.83-5.541-0.535-6.333,2.809c-0.804,3.394,1.811,4.623,4.448,5.571c6.184,2.222,12.162,0.381,16.285-3.595
		c4.043-3.899,7.811-2.777,12.017-2.405c0.827,0.073,1.637,0.329,2.463,0.4c8.329,0.722,15.727-5.802,14.993-13.2
		c0.192-1.316-1.415-2.323-2.411-1.511c-2.064,1.157-4.017,2.637-6.218,3.393c-2.924,1.004-6.042,1.445-9.077,2.128
		c-0.152-2.192-0.335-4.384-0.432-6.579c-0.02-0.466,0.309-0.938,0.425-1.421c1.408-5.855-0.893-8.935-6.932-9.095
		c-1.638-0.044-3.287,0.327-4.931,0.508c2.49-7.966,7.073-14.192,14.795-17.811c2.422,1.639,4.679,3.631,7.295,4.85
		c9.363,4.363,17.593-2.445,18.157-14.845c6.854,0.578,13.711,1.104,20.556,1.769c1.782,0.173,3.522,0.779,5.282,1.188
		c-2.702,16.442-7.983,31.778-18.12,45.326c-23.112,30.892-63.377,39.101-96.519,19.249c-13.03-7.806-23.67-18.142-31.237-31.451
		c6.628-8.506,15.044-14.376,25.472-17.282c0.223,1.136,0.397,2.284,0.678,3.405c1.284,5.124,5.5,8.577,11.114,9.145
		c4.721,0.478,9.96-2.126,11.66-6.734C83.102,127.565,82.857,124.088,83.215,120.833z"/>
	<path fill-rule="evenodd" clip-rule="evenodd" fill="#FBE655" d="M61.24,407.342c0.933,0.252,1.866,0.504,2.799,0.756
		c0.71,1.259,1.176,3.324,2.177,3.629c3.425,1.043,7.021,1.732,10.59,1.959c1.029,0.064,2.186-1.886,3.284-2.912
		c4.312,0.021,8.624,0.044,12.936,0.066c5.967,3.996,9.385,3.733,12.031-0.922c1.998-0.322,3.996-0.645,5.994-0.967
		c3.301,0.818,6.962,3.413,9.032-1.834c0.626-0.125,1.252-0.25,1.879-0.375c1.606,0.473,3.212,0.944,5.863,1.724
		c-1.198-1.725-1.558-2.242-1.917-2.76c10.238-4.931,20.475-9.861,30.712-14.792c3.489,3.402,6.978,6.805,10.466,10.207
		c-5.517,3.719-11.033,7.438-16.552,11.155c-3.23-1.33-6.045-1.794-6.33,3.028c-0.707,0.27-1.414,0.538-2.12,0.808
		c-0.875-0.674-2.399-2.03-2.521-1.914c-1.244,1.185-2.259,2.61-3.337,3.967l-0.051-0.069c-10.754,1.491-21.578,2.611-32.233,4.624
		c-5.885,1.111-14.242,1.769-21.069-0.161c-0.456-0.129-0.973-0.148-1.446-0.088c-5.363,0.68-10.784,2.2-16.063,1.807
		c-3.741-0.279-7.343-3.036-10.896-4.897c-1.247-0.653-2.163-1.938-3.229-2.934c-1.176,1.549-2.352,3.098-3.528,4.646
		c-15.364-4.562-22.14-17.301-20.226-28.817c9.57,4.474,19.127,8.941,28.684,13.409C57.123,408.49,58.605,409.678,61.24,407.342z
		 M82.796,413.414l0.367,0.233l0.051-0.379L82.796,413.414z"/>
	<path fill-rule="evenodd" clip-rule="evenodd" fill="#ECEBE8" d="M167.086,401.122c-3.489-3.402-6.978-6.805-10.466-10.207
		c1.451-1.735,2.829-3.539,4.365-5.195c8.883-9.58,15.548-20.107,12.917-33.925c-1.346-7.063-5.259-12.506-12.601-14.723
		c-0.475-0.144-1.115-0.148-1.393-0.467c-1.695-1.938-3.307-3.95-4.946-5.938c2.036-1.209,3.933-3.012,6.13-3.523
		c10.418-2.425,18.548,1.489,22.539,11.524c7.665,19.269,6.848,43.313-12.705,60.607
		C169.902,400.181,168.377,400.519,167.086,401.122z"/>
	<path fill-rule="evenodd" clip-rule="evenodd" fill="#FBE655" d="M47.71,421.092c1.176-1.548,2.353-3.097,3.528-4.646
		c1.067,0.996,1.983,2.28,3.229,2.934c3.553,1.861,7.155,4.618,10.896,4.897c5.279,0.394,10.7-1.127,16.063-1.807
		c0.473-0.061,0.99-0.041,1.446,0.088c6.828,1.93,15.185,1.272,21.069,0.161c10.655-2.013,21.479-3.133,32.233-4.624
		c-9.418,2.461-18.732,5.48-28.278,7.256c-16.247,3.022-32.691,3.894-49.023,0.534C54.988,425.087,51.422,422.732,47.71,421.092z"/>
	<path fill-rule="evenodd" clip-rule="evenodd" fill="#ECEBE8" d="M138.016,49.987c-1.052-0.023-2.103-0.046-3.155-0.069
		c0.148-1.454-0.078-3.08,0.505-4.331c3.494-7.504,7.146-14.935,10.816-22.354c0.628-1.271,1.602-2.371,3.186-4.663
		c4.967,6.885,9.467,13.121,13.966,19.357c-1.524,0.226-3.049,0.453-4.572,0.677c-2.922-3.852-5.846-7.703-9.293-12.244
		C145.318,34.923,141.667,42.455,138.016,49.987z"/>
	<path fill-rule="evenodd" clip-rule="evenodd" fill="#FBE655" d="M25.364,345.914c0.744,0.297,2.124,0.567,2.137,0.895
		c0.208,5.145,0.361,10.299,0.263,15.446c-0.051,2.702-0.611,5.394-0.942,8.092c-0.63-1.213-1.795-2.424-1.801-3.642
		C24.982,359.775,25.22,352.844,25.364,345.914z"/>
	<path fill-rule="evenodd" clip-rule="evenodd" fill="#FBE655" d="M35.785,269.875c4.45,4.429,4.232,8.61-0.361,14.367
		c-0.757,0.949-0.402,2.786-0.608,4.64c-0.73-1.91-1.332-3.481-1.934-5.054C33.848,279.176,34.816,274.526,35.785,269.875z"/>
	<path fill-rule="evenodd" clip-rule="evenodd" fill="#FBE655" d="M80.09,410.774c-1.099,1.026-2.255,2.977-3.284,2.912
		c-3.569-0.227-7.166-0.916-10.59-1.959c-1.001-0.305-1.466-2.37-2.177-3.629C69.39,408.991,74.74,409.882,80.09,410.774z"/>
	<path fill-rule="evenodd" clip-rule="evenodd" fill="#FBE655" d="M190.856,402.647c0.726,2.082,1.453,4.164,2.18,6.247
		c-3.398,1.465-6.796,2.93-10.195,4.394c-0.335-0.463-0.67-0.926-1.005-1.389C184.843,408.815,187.849,405.73,190.856,402.647z"/>
	<path fill-rule="evenodd" clip-rule="evenodd" fill="#FBE655" d="M195.087,408.055c1.775-1.899,3.378-4.013,5.383-5.627
		c1.461-1.176,3.396-1.919,5.239-2.377c0.588-0.146,1.557,1.242,2.351,1.929C203.735,404.005,199.411,406.03,195.087,408.055z"/>
	<path fill-rule="evenodd" clip-rule="evenodd" fill="#FBE655" d="M197.92,391.768c2.721,5.397-0.327,10.05-6.695,10.22
		C193.457,398.582,195.688,395.174,197.92,391.768z"/>
	<path fill-rule="evenodd" clip-rule="evenodd" fill="#FBE655" d="M105.057,409.918c-2.646,4.655-6.064,4.918-12.031,0.922
		C97.036,410.533,101.047,410.225,105.057,409.918z"/>
	<path fill-rule="evenodd" clip-rule="evenodd" fill="#FBE655" d="M39.196,254.955c1.057,0.411,2.114,0.821,4.257,1.653
		c-2.263,2.744-4.179,5.066-6.097,7.387C37.968,260.981,38.582,257.967,39.196,254.955z"/>
	<path fill-rule="evenodd" clip-rule="evenodd" fill="#FBE655" d="M128.013,386.727c0.705-5.039,2.852-6.111,9.306-4.649
		C134.218,383.628,131.116,385.178,128.013,386.727z"/>
	<path fill-rule="evenodd" clip-rule="evenodd" fill="#FBE655" d="M42.497,242.019c0.728-0.344,1.457-0.687,2.234-1.054
		c-0.632,3.228-1.1,6.405-1.969,9.469c-0.202,0.712-1.772,1.034-2.713,1.536C40.865,248.654,41.681,245.335,42.497,242.019z"/>
	<path fill-rule="evenodd" clip-rule="evenodd" fill="#FBE655" d="M120.083,407.118c-2.07,5.247-5.731,2.652-9.032,1.834
		C114.062,408.34,117.072,407.729,120.083,407.118z"/>
	<path fill-rule="evenodd" clip-rule="evenodd" fill="#FBE655" d="M136.226,418.166c1.078-1.356,2.093-2.782,3.337-3.967
		c0.122-0.116,1.647,1.24,2.521,1.914C140.131,416.797,138.178,417.482,136.226,418.166z"/>
	<path fill-rule="evenodd" clip-rule="evenodd" fill="#FBE655" d="M144.204,415.305c0.284-4.822,3.099-4.358,6.33-3.028
		C148.425,413.287,146.314,414.296,144.204,415.305z"/>
	<path fill-rule="evenodd" clip-rule="evenodd" fill="#FBE655" d="M61.24,407.342c-2.634,2.336-4.117,1.147-5.071-1.658
		C57.859,406.236,59.549,406.79,61.24,407.342z"/>
	<path fill-rule="evenodd" clip-rule="evenodd" fill="#FBE655" d="M125.908,405.707c0.36,0.518,0.719,1.035,1.917,2.76
		c-2.651-0.779-4.257-1.251-5.863-1.724C123.277,406.397,124.593,406.051,125.908,405.707z"/>
	<path fill-rule="evenodd" clip-rule="evenodd" fill="#ECEBE8" d="M169.825,50.002c-0.556-1.096-1.112-2.191-1.669-3.287
		C168.713,47.811,169.269,48.906,169.825,50.002z"/>
	<path fill-rule="evenodd" clip-rule="evenodd" fill="#FBE655" d="M25.972,335.958c0.505,0.271,1.01,0.54,1.514,0.81
		c-0.534,0.391-1.069,0.782-1.605,1.173C25.911,337.281,25.942,336.62,25.972,335.958z"/>
	<path fill-rule="evenodd" clip-rule="evenodd" fill="#38372E" d="M21.313,98.535c-2.217-16.187-0.418-31.91,4.744-49.16
		c9.599,9.073,18.252,17.253,26.688,25.228C41.804,82.933,31.716,90.615,21.313,98.535z"/>
	<path fill-rule="evenodd" clip-rule="evenodd" fill="#282722" d="M112.87,133.739c1.644-0.181,3.293-0.552,4.931-0.508
		c6.039,0.16,8.34,3.239,6.932,9.095c-0.116,0.482-0.445,0.955-0.425,1.421c0.096,2.195,0.279,4.387,0.432,6.579
		c3.035-0.683,6.153-1.124,9.077-2.128c2.202-0.756,4.154-2.235,6.218-3.392c0.803,0.503,1.607,1.007,2.411,1.51
		c0.734,7.398-6.664,13.922-14.993,13.2c-0.827-0.071-1.637-0.327-2.463-0.4c-4.206-0.372-7.974-1.494-12.017,2.405
		c-4.123,3.976-10.102,5.816-16.285,3.595c-2.637-0.948-5.251-2.178-4.448-5.571c0.792-3.344,3.401-3.639,6.333-2.809
		c4.838,1.369,8.298-0.815,11.214-4.225c-2.122-3.361-4.776-6.318-5.974-9.78c-1.485-4.289,2.995-6.053,5.25-8.688
		C110.332,133.941,111.601,133.839,112.87,133.739z"/>
	<path fill-rule="evenodd" clip-rule="evenodd" fill="#282722" d="M153.117,105.933c-0.564,12.399-8.794,19.208-18.157,14.845
		c-2.617-1.219-4.874-3.211-7.295-4.85c0.047-1.463,0.242-2.939,0.117-4.387c-0.585-6.741,2.395-11.8,8.223-13.78
		c6.306-2.143,12.022,0.132,15.646,6.196C152.069,104.658,152.625,105.277,153.117,105.933z"/>
	<path fill-rule="evenodd" clip-rule="evenodd" fill="#282722" d="M83.215,120.833c-0.358,3.256-0.113,6.732-1.212,9.714
		c-1.7,4.608-6.939,7.212-11.66,6.734c-5.614-0.567-9.83-4.021-11.114-9.145c-0.281-1.121-0.455-2.27-0.678-3.405
		c1.271-6.029,4.483-10.302,10.815-11.496C75.996,111.985,79.827,116.057,83.215,120.833z"/>
	<path fill-rule="evenodd" clip-rule="evenodd" fill="#38372E" d="M138.016,49.987c3.651-7.532,7.303-15.064,11.453-23.626
		c3.447,4.542,6.371,8.392,9.293,12.244c1.577,3.011,3.172,6.012,4.727,9.035c0.911,1.773,1.337,3.429-1.402,3.924
		c-0.69-0.021-1.381-0.041-2.071-0.062c-6.021,0.193-12.043,0.515-18.063,0.478C140.636,51.971,139.328,50.685,138.016,49.987z"/>
	<path fill-rule="evenodd" clip-rule="evenodd" fill="#ECEBE8" d="M160.016,51.501c0.69,0.021,1.38,0.041,2.071,0.062
		c-0.22,0.972-0.439,1.944-0.659,2.917c-0.266-0.012-0.532-0.024-0.798-0.036C160.425,53.462,160.22,52.482,160.016,51.501z"/>
	<path fill-rule="evenodd" clip-rule="evenodd" fill="#282722" d="M142.445,146.316c-0.804-0.503-1.607-1.007-2.411-1.51
		C141.03,143.993,142.638,145,142.445,146.316z"/>
	<polygon fill-rule="evenodd" clip-rule="evenodd" fill="#807B76" points="82.796,413.414 83.213,413.268 83.163,413.647 	"/>
</g>
</svg>
