<?xml version="1.0" encoding="UTF-8" standalone="no"?>
<!-- Created with Inkscape (http://www.inkscape.org/) -->

<svg
   xmlns:dc="http://purl.org/dc/elements/1.1/"
   xmlns:cc="http://creativecommons.org/ns#"
   xmlns:rdf="http://www.w3.org/1999/02/22-rdf-syntax-ns#"
   xmlns:svg="http://www.w3.org/2000/svg"
   xmlns="http://www.w3.org/2000/svg"
   xmlns:sodipodi="http://sodipodi.sourceforge.net/DTD/sodipodi-0.dtd"
   xmlns:inkscape="http://www.inkscape.org/namespaces/inkscape"
   width="196.32867"
   height="38.798672"
   viewBox="0 0 51.945293 10.265481"
   version="1.1"
   id="svg4343"
   inkscape:version="0.92.0 r15299"
   sodipodi:docname="macquarie.svg">
  <defs
     id="defs4337">
    <clipPath
       id="clipPath4228"
       clipPathUnits="userSpaceOnUse">
      <path
         inkscape:connector-curvature="0"
         id="path4226"
         d="m 406.417,756.85 h 170.078 v 42.52 H 406.417 Z" />
    </clipPath>
  </defs>
  <sodipodi:namedview
     id="base"
     pagecolor="#ffffff"
     bordercolor="#666666"
     borderopacity="1.0"
     inkscape:pageopacity="0.0"
     inkscape:pageshadow="2"
     inkscape:zoom="4.1059002"
     inkscape:cx="97.664331"
     inkscape:cy="18.899333"
     inkscape:document-units="mm"
     inkscape:current-layer="layer1"
     showgrid="false"
     fit-margin-top="0"
     fit-margin-left="0"
     fit-margin-right="0"
     fit-margin-bottom="0"
     units="px"
     inkscape:window-width="1280"
     inkscape:window-height="744"
     inkscape:window-x="-4"
     inkscape:window-y="-4"
     inkscape:window-maximized="1" />
  <metadata
     id="metadata4340">
    <rdf:RDF>
      <cc:Work
         rdf:about="">
        <dc:format>image/svg+xml</dc:format>
        <dc:type
           rdf:resource="http://purl.org/dc/dcmitype/StillImage" />
        <dc:title></dc:title>
      </cc:Work>
    </rdf:RDF>
  </metadata>
  <g
     inkscape:label="Layer 1"
     inkscape:groupmode="layer"
     id="layer1"
     transform="translate(-97.379884,-254.69331)">
    <g
       id="g4222"
       transform="matrix(0.35277777,0,0,-0.35277777,-49.832479,534.32617)"
       style="fill:#000000">
      <g
         id="g4224"
         clip-path="url(#clipPath4228)"
         style="fill:#000000">
        <g
           id="g4230"
           transform="translate(443.0759,768.4241)"
           style="fill:#000000">
          <path
             d="m 0,0 c -1.043,-0.99 -2.189,-1.771 -3.421,-2.31 -0.243,-0.087 -0.487,-0.191 -0.713,-0.26 0.226,0.139 0.47,0.295 0.713,0.451 1.25,0.851 2.413,1.858 3.421,3.04 1.963,2.31 3.281,5.261 3.23,8.856 -0.07,3.559 -1.337,6.426 -3.23,8.683 -0.99,1.163 -2.171,2.172 -3.421,3.039 -0.243,0.157 -0.487,0.313 -0.713,0.469 0.226,-0.122 0.47,-0.226 0.713,-0.346 C -2.171,20.996 -1.025,20.199 0,19.242 2.448,16.899 4.046,13.633 4.115,9.777 4.185,5.905 2.483,2.38 0,0 m -5.818,4.276 c -0.417,-0.242 -0.833,-0.417 -1.25,-0.501 0.451,0.295 0.869,0.606 1.25,0.953 1.25,1.163 2.015,2.675 1.997,4.949 -0.034,2.241 -0.781,3.769 -1.997,4.932 -0.381,0.366 -0.799,0.678 -1.25,0.99 0.417,-0.154 0.833,-0.346 1.25,-0.589 0.972,-0.591 1.823,-1.477 2.397,-2.571 0.417,-0.817 0.676,-1.754 0.694,-2.762 0,-1.042 -0.26,-2.014 -0.694,-2.863 C -3.995,5.719 -4.862,4.832 -5.818,4.276 m -10.169,5.411 c 0,3.314 2.657,6.281 5.716,6.409 3.057,-0.128 5.713,-3.095 5.713,-6.409 0,-3.315 -2.656,-6.282 -5.713,-6.41 -3.059,0.127 -5.716,3.095 -5.716,6.41 m 1.295,-5.428 c -0.972,0.556 -1.841,1.441 -2.414,2.555 -0.453,0.849 -0.711,1.821 -0.694,2.863 0,1.008 0.26,1.945 0.694,2.762 0.555,1.112 1.425,1.997 2.414,2.588 0.382,0.226 0.798,0.418 1.215,0.572 -0.45,-0.296 -0.851,-0.609 -1.215,-0.953 -1.251,-1.182 -1.997,-2.711 -2.014,-4.969 -0.035,-2.291 0.746,-3.802 2.014,-4.966 0.364,-0.346 0.765,-0.66 1.215,-0.936 -0.417,0.084 -0.833,0.259 -1.215,0.484 m -2.431,-6.569 c -1.235,0.539 -2.38,1.32 -3.423,2.31 -2.484,2.38 -4.185,5.905 -4.115,9.777 0.069,3.856 1.667,7.122 4.115,9.465 1.025,0.957 2.171,1.754 3.423,2.38 0.241,0.12 0.485,0.224 0.711,0.346 -0.226,-0.156 -0.47,-0.312 -0.711,-0.469 -1.252,-0.867 -2.433,-1.876 -3.423,-3.039 -1.892,-2.257 -3.16,-5.124 -3.231,-8.683 -0.051,-3.595 1.27,-6.546 3.231,-8.856 1.008,-1.182 2.171,-2.189 3.423,-3.04 0.241,-0.156 0.485,-0.312 0.711,-0.451 -0.226,0.069 -0.47,0.173 -0.711,0.26 m 6.85,26.171 c -8.554,0 -15.133,-6.346 -15.133,-14.174 0,-7.828 6.579,-14.175 15.133,-14.175 8.554,0 15.135,6.347 15.135,14.175 0,7.828 -6.579,14.174 -15.135,14.174"
             style="fill:#000000;fill-opacity:1;fill-rule:nonzero;stroke:none"
             id="path4232"
             inkscape:connector-curvature="0" />
        </g>
        <g
           id="g4234"
           transform="translate(555.6224,777.9073)"
           style="fill:#000000">
          <path
             d="m 0,0 v -3.591 h 8.544 v -1.5 H -1.567 V 6.161 H 8.544 V 4.664 H 0 V 1.46 H 5.765 V -0.032 H 0 Z m -53.036,5.162 c -3.553,0 -4.91,-2.907 -4.91,-4.557 0,-3.389 3.013,-4.912 4.913,-4.912 0.52,0.007 0.791,0.075 0.995,0.143 -0.28,0.281 -1.226,1.004 -2.492,0.713 0.289,0.594 1.785,1.28 4.074,-0.143 1.496,0.997 2.261,2.206 2.261,4.055 0,3.214 -2.923,4.701 -4.841,4.701 m 0.003,1.138 c 1.884,0 6.62,-0.849 6.62,-5.839 0,-3.112 -2.421,-4.483 -3.063,-4.839 l 1.779,-1.567 -0.853,-1.138 -2.28,1.921 c -0.582,-0.227 -1.436,-0.336 -2.206,-0.356 -5.736,0 -6.689,4.682 -6.689,5.971 0,3.943 3.172,5.847 6.692,5.847 M -5.409,6.161 h 1.565 V -5.091 H -5.409 V 6.086 Z m -67.06,-5.628 c 0,-4.073 6.176,-6.275 10.532,-2.421 l 0.928,-1.066 c -0.144,-0.142 -2.055,-2.277 -6.12,-2.277 -2.912,0 -7.191,1.289 -7.191,5.764 0,1.581 0.972,3.409 2.874,4.537 2.422,1.576 6.67,1.808 9.939,-0.265 l -0.782,-1.139 c -3.777,2.76 -10.18,1.081 -10.18,-3.133 m -16.942,3.207 -5.053,-9.043 -4.914,9.043 v -8.829 h -1.568 V 6.159 h 2.137 l 4.414,-8.401 4.559,8.403 h 1.989 v -11.25 h -1.564 z m 9.255,0.924 2.421,-5.48 h -4.915 z m -0.782,1.497 h 1.566 l 5.408,-11.252 h -1.708 l -1.417,2.921 h -6.125 l -1.427,-2.919 h -1.636 z m 53.59,-1.497 2.423,-5.48 h -4.916 z m -0.782,1.497 h 1.567 l 5.409,-11.252 h -1.71 l -1.415,2.921 h -6.127 l -1.427,-2.919 h -1.636 z m 16.241,0 c 3.932,0 3.987,-2.636 3.987,-3.135 0,-0.716 -0.246,-2.662 -3.415,-3.131 l 3.559,-4.986 h -1.924 l -3.346,4.915 h -4.839 v -4.915 h -1.566 V 6.161 Z m -0.496,-5.057 c 2.893,0.029 2.847,1.636 2.847,1.922 0,0.213 -0.089,1.854 -2.42,1.854 h -0.427 -5.482 V 1.104 Z m -27.171,-5.239 c 2.242,0.036 3.165,0.604 3.532,0.979 0.342,0.372 0.478,1.059 0.478,1.627 v 7.69 h 1.497 v -7.763 c 0,-1.021 -0.037,-1.794 -0.854,-2.489 -0.459,-0.396 -1.39,-1.272 -4.653,-1.272 -3.262,0 -4.192,0.876 -4.651,1.272 -0.818,0.695 -0.853,1.468 -0.853,2.489 v 7.763 h 1.494 v -7.69 c 0,-0.568 0.137,-1.255 0.478,-1.627 0.368,-0.375 1.291,-0.943 3.532,-0.979"
             style="fill:#000000;fill-opacity:1;fill-rule:evenodd;stroke:none"
             id="path4236"
             inkscape:connector-curvature="0" />
        </g>
      </g>
    </g>
  </g>
</svg>
