<svg width="193" height="34" xmlns="http://www.w3.org/2000/svg" viewBox="0 0 703.13 124.69"><path d="M618.55,49.8c0-9.73-5.93-17.49-19.81-17.49h-32V92.4h8.64V67.29h18.91L611,92.4H621L603.92,66.87C615,65,618.55,56.77,618.55,49.8Zm-43.2,9.58v-19h23.14c7.36,0,11.42,3.36,11.42,9.44s-4.06,9.58-11.42,9.58Z" style="fill:#ffffff"/><path d="M483.89,66.12c0,12.35-6.38,19.15-18,19.15s-18-6.8-18-19.15V32.31h-8.64V67.05c0,16,9.82,26.58,26.61,26.58s26.6-10.53,26.6-26.58V32.31h-8.64Z" style="fill:#ffffff"/><polygon points="664.06 84.35 664.06 65.31 698.58 65.31 698.58 57.34 664.06 57.34 664.06 40.36 702.59 40.36 702.59 32.31 655.42 32.31 655.42 92.4 703.13 92.4 703.13 84.35 664.06 84.35" style="fill:#ffffff"/><rect x="632.08" y="32.31" width="8.64" height="60.09" style="fill:#ffffff"/><path d="M267.68,32.31,240.08,92.4h8.75l7.08-15.68h30.63l7.09,15.68h8.75L274.77,32.31ZM259.41,69l11.82-26.14L283,69Z" style="fill:#ffffff"/><path d="M524.37,32.31,496.76,92.4h8.76l7.08-15.68h30.63l7.09,15.68h8.75L531.46,32.31ZM516.1,69l11.82-26.14L539.73,69Z" style="fill:#ffffff"/><polygon points="199.34 81.13 179.31 32.31 166.25 32.31 166.25 92.4 174.44 92.4 174.44 41.21 195.61 92.4 203.07 92.4 224.24 41.21 224.24 92.4 232.43 92.4 232.43 32.31 219.37 32.31 199.34 81.13" style="fill:#ffffff"/><path d="M335.46,39.18c7.52,0,13.75,3.55,18.52,10.56l6.63-5.06a29.76,29.76,0,0,0-25.14-13.6C317.73,31.08,304,44.62,304,62.36s13.73,31.28,31.47,31.28A29.77,29.77,0,0,0,360.61,80L354,75c-4.77,7-11,10.56-18.52,10.56-11.94,0-22.65-8.89-22.65-23.18S323.52,39.18,335.46,39.18Z" style="fill:#ffffff"/><path d="M428.18,62.36c0-17.25-13.5-31.27-30.79-31.27-17.14,0-30.79,13.85-30.79,31.27,0,17.25,13.5,31.27,30.79,31.27a30.47,30.47,0,0,0,20-7.38l6.77,6.15H436L422.69,80.29A31.56,31.56,0,0,0,428.18,62.36Zm-11.9,12.1-7.89-7.17L402.73,73l8.4,7.64a21.38,21.38,0,0,1-13.74,4.93c-12.36,0-22-10.17-22-23.16s9.68-23.17,22-23.17,22,10.18,22,23.17A24.35,24.35,0,0,1,416.28,74.46Z" style="fill:#ffffff"/><path d="M66.66,0C29.27,0,0,27.32,0,62.35s29.27,62.34,66.66,62.34,66.65-27.32,66.65-62.34S104,0,66.66,0ZM26.28,105.36a.52.52,0,0,1,.06.77c-.18.16-.53.14-.86-.14a56,56,0,0,1,0-87.29c.33-.28.68-.3.86-.14a.52.52,0,0,1-.06.77C18.14,27.86,10.2,42,10.2,62.35S18.14,96.83,26.28,105.36ZM46.9,89.11c-.14.21-.49.27-.88,0-9.31-5.6-16.66-14.64-16.66-26.79S36.71,41.16,46,35.55c.39-.24.74-.18.88,0a.48.48,0,0,1-.15.66A34.13,34.13,0,0,0,35,62.35a34.11,34.11,0,0,0,11.75,26.1A.48.48,0,0,1,46.9,89.11ZM66.66,91.4c-14.46,0-27.11-12.54-27.11-29.05S52.2,33.29,66.66,33.29s27.1,12.54,27.1,29.06S81.11,91.4,66.66,91.4Zm20.63-2.26c-.39.24-.74.18-.88,0a.48.48,0,0,1,.16-.66,34.14,34.14,0,0,0,11.75-26.1A34.17,34.17,0,0,0,86.57,36.24a.48.48,0,0,1-.16-.66c.14-.21.49-.27.88,0C96.6,41.16,104,50.19,104,62.35S96.6,83.54,87.29,89.14ZM107.84,106c-.34.28-.68.3-.86.14a.52.52,0,0,1,0-.77c8.14-8.53,16.09-22.71,16.09-43s-8-34.49-16.09-43a.52.52,0,0,1,0-.77c.18-.16.52-.14.86.14a56,56,0,0,1,0,87.29Z" style="fill:#ffffff"/></svg>