<?xml version="1.0" encoding="utf-8"?>
<!-- Generator: Adobe Illustrator 16.0.0, SVG Export Plug-In . SVG Version: 6.00 Build 0)  -->
<!DOCTYPE svg PUBLIC "-//W3C//DTD SVG 1.1//EN" "http://www.w3.org/Graphics/SVG/1.1/DTD/svg11.dtd">
<svg version="1.1" id="Layer_1" xmlns="http://www.w3.org/2000/svg" xmlns:xlink="http://www.w3.org/1999/xlink" x="0px" y="0px"
	 width="365.179px" height="262.215px" viewBox="0 0 365.179 262.215" enable-background="new 0 0 365.179 262.215"
	 xml:space="preserve">
<path fill-rule="evenodd" clip-rule="evenodd" fill="#282723" d="M63.716,239.365c-1.021,0-2.041,0-3.061,0
	c-0.476-0.525-1.293-0.957-1.296-1.656c-0.03-5.768-2.193-11.461,1.015-17.313c2.299-4.191,5.7-7.309,8.46-10.998
	c6.408-8.568,12.678-17.246,19.272-25.674c1.199-1.533,1.249-2.983,0.779-4.83c-4.513-17.75-3.007-35.065,5-51.496
	c4.636-9.513,12.118-16.918,21.105-22.463c3.829-2.363,5.292-5.144,5.798-9.495c1.236-10.614,2.431-21.236,3.739-31.843
	c0.959-7.781,1.98-15.559,2.793-23.355c0.684-6.557,3.014-9.068,9.556-9.65c13.489-1.199,26.923-2.942,40.405-4.19
	c15.006-1.389,29.975-3.116,44.975-4.56c13.881-1.336,27.733-3.003,41.593-4.575c8.898-1.009,17.861-1.335,26.811-1.702
	c0.503-0.021,1.022,0.061,1.451-0.308c2.448,0,4.897,0,7.348,0c1.773,0.538,3.667,0.907,4.286,3.062c0,2.246,0,4.491,0,6.736
	c-1.06,4.688-0.756,9.493-1.164,14.237c-0.664,7.715-1.889,15.356-2.703,23.05c-0.847,7.996-1.785,15.982-2.811,23.958
	c-1.22,9.489-2.337,18.993-3.343,28.506c-0.61,5.774-1.32,11.53-2.229,17.258c-0.698,4.399-2.038,8.674-2.114,13.205
	c-0.036,2.157-1.588,3.894-2.837,5.66c-7.35,10.402-15.324,20.338-22.844,30.611c-9.506,12.988-19.388,25.699-28.746,38.791
	c-3.193,4.467-7.498,5.158-12.218,5.543c-14.506,1.18-28.968,2.887-43.465,4.084c-10.648,0.879-21.289,1.891-31.933,2.811
	c-9.83,0.852-19.669,1.652-29.49,2.678c-7.987,0.834-16.017,1.426-24.022,2.156C83.805,238.517,73.736,238.513,63.716,239.365z"/>
<path fill-rule="evenodd" clip-rule="evenodd" fill="#282723" d="M303.744,18.318c-1.429-1.021-2.858-2.041-4.286-3.062
	c0.408,0,0.816,0,1.225,0C303.744,15.257,303.744,15.257,303.744,18.318z"/>
<path fill-rule="evenodd" clip-rule="evenodd" fill="#F2F2F2" d="M272.493,40.043c2.368-0.577,1.999,1.131,1.829,2.546
	c-0.865,7.185-1.761,14.366-2.661,21.546c-2.168,17.296-4.384,34.585-6.468,51.892c-0.238,1.979-0.82,2.855-2.879,2.962
	c-2.846,0.147-5.682,0.553-8.512,0.928c-1.815,0.24-2.443-0.413-2.679-2.275c-0.636-5.045-1.269-10.12-2.42-15.062
	c-2.028-8.709-7.505-10.472-14.485-4.849c-1.975,1.592-3.765,3.429-5.539,5.251c-0.938,0.963-1.697,1.143-2.905,0.422
	c-17.329-10.347-36.39-13.346-56.163-12.759c-6.186,0.184-12.348,1.363-18.503,2.211c-3.031,0.417-3.096,0.522-2.748-2.353
	c1.432-11.839,2.943-23.669,4.327-35.513c0.242-2.071,0.958-2.901,3.159-3.113c19.986-1.925,39.959-3.972,59.934-6.012
	c18.354-1.875,36.704-3.786,55.057-5.679C271.343,40.134,271.852,40.098,272.493,40.043z"/>
<path fill-rule="evenodd" clip-rule="evenodd" fill="#FEE557" d="M173.4,192.13c-18.041,1.377-35.577-1.48-52.745-6.715
	c-6.31-1.924-12.376-4.676-18.477-7.237c-1.058-0.444-2.149-1.679-2.495-2.778c-0.818-2.605-1.492-5.325-1.7-8.038
	c-0.651-8.49-0.246-16.918,2.402-25.111c4.069-12.593,11.879-22.117,23.392-28.643c15.44-8.75,32.095-12.714,49.767-12.805
	c9.21-0.047,18.338,0.519,27.228,3.162c0.534,0.159,1.004,0.539,1.503,0.816c-0.463,0.327-0.881,0.824-1.394,0.956
	c-5.441,1.402-10.204,4.099-14.473,7.664c-1.44,1.202-2.606,1.039-4.152,0.276c-3.101-1.53-6.224-3.091-9.487-4.194
	c-5.246-1.774-9.188,1.549-8.643,7.12c0.188,1.914,0.795,3.784,1.123,5.689c0.465,2.701,0.136,3.018-2.535,2.644
	c-8.045-1.124-16.052-1.408-23.924,1.122c-4.79,1.539-8.797,4.23-11.847,8.244c-1.711,2.253-1.59,4.521,0.163,6.386
	c1.7,1.809,4.126,2.145,6.41,0.772c0.952-0.573,1.897-1.245,2.644-2.058c3.256-3.536,7.446-4.917,12.046-5.21
	c5.936-0.378,11.802,0.084,17.583,1.675c2.494,0.686,4.092,1.877,4.845,4.454c2.302,7.871,5.665,15.235,10.989,21.58
	c1.293,1.541,2.646,3.029,3.973,4.541c-0.041,0.53-0.243,1.021-0.629,1.355c-6.575,5.707-8.539,13.629-10.367,21.607
	C174.369,190.412,174.222,191.406,173.4,192.13z"/>
<path fill-rule="evenodd" clip-rule="evenodd" fill="#F2F2F2" d="M263.729,140.87c2.641-0.251,5.28-0.516,7.922-0.747
	c0.679-0.059,1.366-0.012,2.051-0.015c-0.333,0.7-0.563,1.475-1.013,2.089c-3.193,4.359-6.423,8.691-9.655,13.021
	c-12.682,16.988-25.388,33.958-38.021,50.98c-1.255,1.691-2.564,2.447-4.737,2.627c-20.023,1.666-40.033,3.508-60.048,5.266
	c-17.475,1.535-34.955,3.016-52.43,4.545c-10.058,0.879-20.11,1.803-30.165,2.707c-0.305,0.027-0.611,0.109-0.913,0.088
	c-0.754-0.047-1.505-0.139-2.258-0.215c0.344-0.602,0.629-1.25,1.041-1.803c5.481-7.359,10.982-14.703,16.474-22.055
	c1.831-2.451,3.664-4.9,5.465-7.373c0.914-1.252,1.753-2.141,3.483-1.033c1.811,1.16,0.394,2.082-0.027,3.043
	c-0.562,1.281-1.615,2.436-0.525,3.943c1.103,1.523,2.472,0.781,3.873,0.635c6.992-0.727,13.965-1.615,20.841,1.084
	c2.723,1.068,5.736,1.402,8.625,2.033c2.839,0.619,2.846,0.6,1.197,3.141c-0.888,1.367-1.965,2.648-2.615,4.119
	c-0.524,1.186-1.052,2.787-0.657,3.865c0.621,1.697,2.317,2.385,4.282,2.207c5.995-0.547,11.998-0.994,17.994-1.518
	c4.673-0.406,9.336-0.924,14.012-1.283c3.363-0.26,5.486-2.115,6.61-5.082c0.899-2.371,2.397-3.451,4.907-3.777
	c12.947-1.682,25.313-5.305,36.988-11.246c1.668-0.85,3.68-1.166,5.572-1.398c2.932-0.361,5.902-0.654,8.848-0.578
	c3.246,0.082,5.314-1.441,7.129-3.875c5.182-6.945,10.425-13.846,15.689-20.728c4.141-5.414,8.385-10.749,12.481-16.196
	c0.511-0.681,0.79-2.027,0.456-2.716c-0.341-0.704-1.579-1.385-2.409-1.367c-3.258,0.068-6.51,0.416-9.763,0.662
	c-0.61,0.046-1.233,0.204-1.825,0.123c-0.424-0.059-0.806-0.432-1.206-0.665c0.356-0.421,0.65-1.112,1.081-1.213
	c1.284-0.3,2.621-0.377,3.938-0.523c2.436-0.27,4.869-0.525,7.305-0.788C263.729,140.859,263.729,140.864,263.729,140.87z"/>
<path fill-rule="evenodd" clip-rule="evenodd" fill="#E9E7E6" d="M175.095,123.101c-0.026-0.436-0.054-0.872-0.082-1.309
	c0.122-0.358,0.36-0.586,0.741-0.649c0.357,0.103,0.713,0.204,1.07,0.307c0.367,0.125,0.463,0.145,0.734,0.408
	c2.349,1.43,4.637,2.979,7.082,4.215c0.759,0.384,2.191,0.26,2.89-0.234c1.479-1.046,2.673-2.494,3.991-3.77
	c9.182-8.889,23.096-11.094,34.483-5.227c2.313,1.192,3.492,0.528,4.837-1.187c2.191-2.796,4.326-5.663,6.773-8.225
	c1.99-2.085,2.523-1.772,3.08,1.112c1.533,7.973,1.543,16.015,1.006,24.066c-0.113,1.7-0.705,3.368-1.077,5.051
	c-0.64,0.889-1.388,1.493-2.565,0.994c-2.386-2.48-3.398-2.361-4.903,0.553c-1.489,2.887-3.763,5-6.603,6.515
	c-1.563,0.834-2.674,1.815-2.142,3.842c0.065,0.245,2.1,0.887,0.824,1.175c-0.339,0.076-0.933,0.373-1.112,0.511
	c-2.581,1.99-5.252,3.863-7.894,5.772c-1.853,0.06-3.357-0.732-4.711-1.905c-0.874-2.188-2.351-2.952-4.714-2.308
	c-1.434,0.391-2.979,0.253-4.46-0.101c-0.437-0.098-0.851-0.256-1.253-0.446c-0.369-0.159-0.754-0.323-1.047-0.592
	c-2.271-2.082-4.698-2.451-7.345-0.72c-2.294,0.342-4.598,0.782-6.647-0.817c-0.156-0.068-0.314-0.129-0.477-0.184
	c-2.837-4.278-4.527-9.071-5.901-13.944c-0.528-1.873-2.116-6.786-3.392-8.538c-0.371-1.276-0.742-2.553-1.113-3.829"/>
<path fill-rule="evenodd" clip-rule="evenodd" fill="#E9E7E6" d="M173.4,192.13c0.644-8.488,3.101-16.325,8.561-22.993
	c0.928-1.132,2.41-1.808,3.635-2.694c1.207,0.688,2.455,1.314,3.616,2.074c7.196,4.712,15.044,6.518,23.589,5.517
	c2.307-0.271,3.799-1.395,5.305-3.122c2.648-3.037,5.504-5.957,8.628-8.486c1.565-1.269,3.884-1.68,5.925-2.255
	c0.898-0.253,1.953,0.05,2.938,0.101c-0.371,0.887-0.588,1.886-1.138,2.643c-3.569,4.896-7.911,9.037-12.837,12.546
	c-12.652,9.012-26.922,13.807-42.154,16.043C177.457,191.8,175.422,191.925,173.4,192.13z"/>
<path fill-rule="evenodd" clip-rule="evenodd" fill="#FEE557" d="M212.258,154.754c1.324,0.757,2.648,1.513,3.972,2.268
	c-1.718,2.101-3.333,4.297-5.21,6.244c-0.579,0.603-1.863,0.717-2.828,0.727c-9.127,0.107-15.912-4.237-21.166-11.355
	c-0.514-0.693-0.656-1.662-0.973-2.504c2.503-0.044,5.006-0.087,7.508-0.131c1.645,0.707,2.087,2.606,3.678,3.495
	c3.549,1.982,7.24,2.396,11.131,1.678C209.662,154.936,210.93,154.609,212.258,154.754z"/>
<path fill-rule="evenodd" clip-rule="evenodd" fill="#E9E7E6" d="M157.584,202.318c2.63,0,6.605-0.01,10.58,0.01
	c0.559,0.004,1.117,0.158,1.676,0.244c-0.25,0.633-0.348,1.424-0.792,1.855c-0.452,0.439-1.233,0.688-1.894,0.746
	c-8.934,0.811-17.869,1.582-26.807,2.324c-0.628,0.051-1.283-0.199-1.925-0.311c0.247-0.867,0.319-1.84,0.771-2.582
	c1.744-2.867,4.164-3.816,7.6-3.113C149.861,202.119,153.08,202.009,157.584,202.318z"/>
<path fill-rule="evenodd" clip-rule="evenodd" fill="#38362E" d="M177.384,126.964c-0.451-1.064-1.302-2.435-1.216-3.131
	c0.111-0.928,1.023-0.557,1.429-0.557c0.445,0.151,0.94,0.219,1.327,0.47c5.031,3.261,4.994,3.25,2.212,9.228
	c-0.384,0.824-0.837,1.719-0.914,1.507C177.893,128.021,179.68,133.438,177.384,126.964z"/>
<path fill-rule="evenodd" clip-rule="evenodd" fill="#E9E7E6" d="M251.191,149.454c1.708-0.191,3.415-0.402,5.126-0.563
	c0.484-0.046,0.981,0.051,1.473,0.084c-0.229,0.524-0.368,1.117-0.703,1.562c-2.611,3.485-5.261,6.94-7.896,10.406
	c-0.782,1.028-1.558,2.062-2.336,3.093c-0.523-0.587-0.553-1.278-0.424-2.003c1.264-3.336,2.527-6.673,3.791-10.01
	C250.57,151.176,250.497,150.171,251.191,149.454z"/>
<path fill-rule="evenodd" clip-rule="evenodd" fill="#FEE557" d="M238.059,138.654c0.855-0.331,1.71-0.663,2.565-0.994
	c-1.495,3.634-2.856,7.331-4.532,10.88c-1.063,2.253-3.6,1.36-5.467,1.904c-0.126,0.037-0.32-0.154-0.482-0.239
	c0.189-0.332,0.315-0.729,0.58-0.984c1.67-1.611,3.656-2.987,4.979-4.843C236.867,142.741,237.301,140.583,238.059,138.654z"/>
<path fill-rule="evenodd" clip-rule="evenodd" fill="#E9E7E6" d="M236.586,177.591c-0.563-0.101-0.879-0.412-0.855-1.011
	c1.222-1.555,2.49-3.075,3.652-4.673c2.38-3.271,4.703-6.581,7.049-9.875c0.142,0.668,0.281,1.335,0.424,2.003"/>
<path fill-rule="evenodd" clip-rule="evenodd" fill="#E9E7E6" d="M235.73,176.58c0.285,0.337,0.57,0.674,0.855,1.011
	c-0.945,1.264-1.891,2.528-2.838,3.791c-0.18,0.241-0.334,0.639-0.561,0.688c-1.489,0.317-2.995,0.559-4.495,0.825
	c0.731-0.758,1.462-1.517,2.192-2.276c0.217-0.425,0.951-0.188,1.021-0.798C233.182,178.74,234.456,177.66,235.73,176.58z"/>
<path fill-rule="evenodd" clip-rule="evenodd" fill="#808080" d="M251.191,149.454c-0.322,0.857-0.646,1.713-0.969,2.568
	C250.545,151.167,250.869,150.312,251.191,149.454z"/>
<path fill-rule="evenodd" clip-rule="evenodd" fill="#808080" d="M231.906,179.82c-0.34,0.266-0.681,0.531-1.021,0.798
	C231.226,180.352,231.566,180.086,231.906,179.82z"/>
<path fill-rule="evenodd" clip-rule="evenodd" fill="#808080" d="M176.824,121.449c0.245,0.136,0.49,0.271,0.734,0.408"/>
<path fill-rule="evenodd" clip-rule="evenodd" fill="#282723" d="M212.258,154.754c-4.435,3.316-14.117,2.403-17.561-1.765
	c-0.643-0.778-0.771-1.98-1.137-2.987c1.969-2.219,2.587-2.251,4.896-0.536c0.939,0.698,2.026,1.198,3.047,1.789
	c0.222,0.168,0.409,0.477,0.744,0.178c2.019-0.023,4.044,0.057,6.053-0.096C211.377,151.104,211.905,151.495,212.258,154.754z"/>
<path fill-rule="evenodd" clip-rule="evenodd" fill="#38362E" d="M240.734,123.521c-0.023,0.126-0.15,0.808-0.277,1.49
	c-0.605-0.299-1.305-0.49-1.801-0.916c-2.012-1.726-4.025-3.458-5.887-5.339c-0.491-0.498-0.867-1.835-0.562-2.279
	c1.842-2.665,3.864-5.21,5.899-7.736c0.779-0.968,1.458-0.569,1.631,0.511c0.239,1.503,0.385,3.027,0.482,4.546
	C240.414,116.848,240.547,119.9,240.734,123.521z"/>
<path fill-rule="evenodd" clip-rule="evenodd" fill="#808080" d="M202.247,151.433c-0.248-0.06-0.497-0.118-0.744-0.178
	C201.75,151.314,201.999,151.373,202.247,151.433z"/>
<polygon fill-rule="evenodd" clip-rule="evenodd" fill="#FEE557" points="233.538,44.042 272.875,54.41 271.77,63.274 
	219.877,45.447 "/>
<path fill-rule="evenodd" clip-rule="evenodd" fill="#F2F2F2" d="M277.651,31.667c-10.882,1.114-22.039,2.27-33.199,3.394
	c-15.828,1.595-31.661,3.14-47.485,4.757c-15.414,1.574-30.824,3.191-46.23,4.831c-5.167,0.55-5.993,1.413-6.636,6.607
	c-1.718,13.862-3.409,27.727-5.125,41.588c-0.329,2.657-2.315,4.313-4.904,3.97c-0.3-0.041-0.71-1.162-0.649-1.738
	c0.682-6.491,1.426-12.975,2.191-19.456c1.21-10.229,2.509-20.449,3.632-30.688c0.251-2.3,1.003-3.229,3.455-3.475
	c20.493-2.049,40.969-4.268,61.452-6.419c23.731-2.492,47.466-4.967,71.198-7.45c4.464-0.467,8.925-0.97,13.393-1.39
	c2.938-0.276,3.017-0.213,2.687,2.656c-1.069,9.319-2.194,18.63-3.303,27.944c-1.977,16.602-3.952,33.204-5.935,49.806
	c-0.81,6.78-1.691,13.553-2.411,20.343c-0.183,1.718-0.962,2.18-2.517,2.332c-7.814,0.768-15.62,1.627-23.431,2.447
	c-1.103,0.116-2.338,0.475-2.41-1.345c-0.06-1.499,0.23-2.563,2.044-2.729c4.672-0.429,9.336-0.94,13.999-1.456
	c4.756-0.524,5.71-1.566,6.287-6.235c2.527-20.441,5.099-40.876,7.646-61.315c0.858-6.88,1.701-13.762,2.54-20.644
	C284.525,33.208,282.847,31.443,277.651,31.667z"/>
<polygon fill-rule="evenodd" clip-rule="evenodd" fill="#FEE557" points="207.495,46.712 270.937,69.904 269.328,82.662 
	185.345,48.962 "/>
<g>
	<path fill="#FEE557" d="M275.139,220.426c2.185,1.968,6.262,6.783,10.779,14.997c4.498,8.178,6.387,14.184,6.89,17.097
		c-2.52,0.771-7.759,1.695-15.737,1.695c-10.259,0-17.646-1.432-20.903-2.585c0.641-2.882,2.792-8.761,7.615-16.69
		C268.628,226.973,272.88,222.325,275.139,220.426 M275.205,211.697c-8.898,0-31.409,36.886-26.579,44.402
		c2.535,3.944,15.895,6.116,28.444,6.116c11.021,0,21.42-1.677,23.301-5.298C304.625,248.726,284.167,211.697,275.205,211.697
		L275.205,211.697z"/>
</g>
<g>
	<path fill="#FEE557" d="M334.19,215.737l22.679,3.04l-3.039,22.68l-22.68-3.04L334.19,215.737 M332.048,207.428
		c-2.718,0-5.085,2.011-5.456,4.779l-3.701,27.612c-0.404,3.018,1.714,5.79,4.73,6.195l27.613,3.701
		c0.248,0.033,0.493,0.049,0.736,0.049c2.72,0,5.087-2.011,5.458-4.779l3.7-27.613c0.405-3.016-1.714-5.789-4.729-6.194
		l-27.614-3.701C332.537,207.444,332.291,207.428,332.048,207.428L332.048,207.428z"/>
</g>
<g>
	<path fill="#FEE557" d="M303.744,182.777c1.751,0,3.176,1.424,3.176,3.175s-1.425,3.176-3.176,3.176s-3.176-1.425-3.176-3.176
		S301.993,182.777,303.744,182.777 M303.744,174.776c-6.171,0-11.176,5.003-11.176,11.175s5.005,11.176,11.176,11.176
		c6.173,0,11.176-5.004,11.176-11.176S309.917,174.776,303.744,174.776L303.744,174.776z"/>
</g>
<g>
	<path fill="#FEE557" d="M89.286,8.097l3.172,32.822L59.636,44.09l-3.171-32.823L89.286,8.097 M90.245,0
		c-0.223,0-0.447,0.01-0.673,0.032L54.641,3.407c-3.814,0.37-6.609,3.761-6.24,7.577l3.374,34.928
		c0.347,3.591,3.37,6.275,6.904,6.275c0.223,0,0.447-0.01,0.673-0.032l34.929-3.375c3.816-0.372,6.61-3.762,6.242-7.577
		L97.147,6.274C96.802,2.686,93.778,0,90.245,0L90.245,0z"/>
</g>
<g>
	<path fill="#FEE557" d="M16.033,48.897c4.43,0,8.034,3.604,8.034,8.033c0,4.43-3.604,8.033-8.034,8.033S8,61.36,8,56.93
		C8,52.501,11.604,48.897,16.033,48.897 M16.033,40.897C7.18,40.897,0,48.076,0,56.93s7.18,16.033,16.033,16.033
		c8.856,0,16.034-7.179,16.034-16.033S24.889,40.897,16.033,40.897L16.033,40.897z"/>
</g>
<g>
	<path fill="#FEE557" d="M70.977,82.223c0.662,1.875,1.417,4.619,2.004,8.195c0.584,3.555,0.748,6.384,0.724,8.37
		c-4.797-0.946-11.76-3.696-15.7-5.986c1.296-1.498,3.29-3.501,6.076-5.772C66.873,84.752,69.244,83.196,70.977,82.223
		 M73.366,72.963c-6.66,0-26.201,16.221-24.939,21.581c1.107,4.705,19.875,12.582,28.173,12.582c1.525,0,2.699-0.267,3.342-0.868
		c4.38-4.095-0.126-31.207-5.615-33.149C74.047,73.011,73.725,72.963,73.366,72.963L73.366,72.963z"/>
</g>
</svg>
