<?xml version="1.0" encoding="UTF-8"?>
<!DOCTYPE svg PUBLIC "-//W3C//DTD SVG 1.1//EN" "http://www.w3.org/Graphics/SVG/1.1/DTD/svg11.dtd">
<svg xmlns="http://www.w3.org/2000/svg" version="1.1" width="2425px" height="617px" style="shape-rendering:geometricPrecision; text-rendering:geometricPrecision; image-rendering:optimizeQuality; fill-rule:evenodd; clip-rule:evenodd" xmlns:xlink="http://www.w3.org/1999/xlink">
<g><path style="opacity:0.133" fill="#cdfcfb" d="M 391.5,59.5 C 390.515,55.3656 390.182,51.0323 390.5,46.5C 361.167,46.5 331.833,46.5 302.5,46.5C 302.833,165.668 302.5,284.668 301.5,403.5C 301.5,284.167 301.5,164.833 301.5,45.5C 331.507,45.1668 361.507,45.5002 391.5,46.5C 392.014,50.7849 392.014,55.1182 391.5,59.5 Z"/></g>
<g><path style="opacity:1" fill="#29f4ee" d="M 391.5,59.5 C 391.5,60.8333 391.5,62.1667 391.5,63.5C 391.5,64.8333 391.5,66.1667 391.5,67.5C 370.5,67.5 349.5,67.5 328.5,67.5C 328.5,185.833 328.5,304.167 328.5,422.5C 325.596,455.56 308.596,477.727 277.5,489C 244.816,497.769 217.483,489.436 195.5,464C 195.728,463.601 196.062,463.435 196.5,463.5C 235.277,478.269 266.777,468.935 291,435.5C 296.703,425.229 300.203,414.562 301.5,403.5C 302.5,284.668 302.833,165.668 302.5,46.5C 331.833,46.5 361.167,46.5 390.5,46.5C 390.182,51.0323 390.515,55.3656 391.5,59.5 Z"/></g>
<g><path style="opacity:0.998" fill="#fefefe" d="M 392.5,67.5 C 393.167,67.5 393.833,67.5 394.5,67.5C 399.879,100.95 416.379,127.283 444,146.5C 444.399,146.272 444.565,145.938 444.5,145.5C 446.525,147.196 448.525,148.863 450.5,150.5C 450.062,150.435 449.728,150.601 449.5,151C 467.035,170.436 488.702,182.603 514.5,187.5C 514.5,181.167 514.5,174.833 514.5,168.5C 515.491,175.313 515.825,182.313 515.5,189.5C 514.503,211.66 514.169,233.994 514.5,256.5C 469.993,257.055 429.493,244.389 393,218.5C 392.667,283.167 392.333,347.833 392,412.5C 383.836,477.987 349.669,524.153 289.5,551C 237.382,571.018 187.715,566.185 140.5,536.5C 139.537,536.97 139.537,537.637 140.5,538.5C 138.605,537.297 136.605,536.131 134.5,535C 134.833,534.667 135.167,534.333 135.5,534C 133.294,531.963 131.294,529.797 129.5,527.5C 94.3435,482.574 83.8435,431.907 98,375.5C 123.437,303.58 174.27,264.58 250.5,258.5C 250.5,251.5 250.5,244.5 250.5,237.5C 251.167,266.167 251.833,294.833 252.5,323.5C 251.194,324.467 250.527,325.801 250.5,327.5C 209.996,318.939 180.163,332.939 161,369.5C 152.547,391.599 154.047,412.932 165.5,433.5C 164.167,433.833 164.167,434.167 165.5,434.5C 166.5,434.833 167.167,435.5 167.5,436.5C 166.167,436.833 166.167,437.167 167.5,437.5C 168.167,437.5 168.5,437.833 168.5,438.5C 167.167,438.833 167.167,439.167 168.5,439.5C 168.5,440.167 168.833,440.5 169.5,440.5C 170.5,440.833 171.167,441.5 171.5,442.5C 170.167,442.833 170.167,443.167 171.5,443.5C 171.5,444.167 171.833,444.5 172.5,444.5C 172.5,445.167 172.833,445.5 173.5,445.5C 173.5,446.167 173.833,446.5 174.5,446.5C 176.5,447.833 178.167,449.5 179.5,451.5C 179.5,452.167 179.833,452.5 180.5,452.5C 180.5,453.167 180.833,453.5 181.5,453.5C 181.833,454.833 182.167,454.833 182.5,453.5C 183.833,454.167 184.833,455.167 185.5,456.5C 185.833,457.833 186.167,457.833 186.5,456.5C 188.471,457.823 190.471,459.156 192.5,460.5C 193.298,460.043 193.631,459.376 193.5,458.5C 194.718,459.731 196.051,460.898 197.5,462C 196.944,462.383 196.611,462.883 196.5,463.5C 196.062,463.435 195.728,463.601 195.5,464C 217.483,489.436 244.816,497.769 277.5,489C 308.596,477.727 325.596,455.56 328.5,422.5C 329.5,304.668 329.833,186.668 329.5,68.5C 350.673,68.8306 371.673,68.4973 392.5,67.5 Z"/></g>
<g><path style="opacity:1" fill="#fe3a5c" d="M 394.5,67.5 C 402.167,67.5 409.833,67.5 417.5,67.5C 417.777,96.6699 426.777,122.67 444.5,145.5C 444.565,145.938 444.399,146.272 444,146.5C 416.379,127.283 399.879,100.95 394.5,67.5 Z"/></g>
<g><path style="opacity:0.827" fill="#f2fdfd" d="M 391.5,63.5 C 393.109,64.6654 393.443,65.9988 392.5,67.5C 371.673,68.4973 350.673,68.8306 329.5,68.5C 329.833,186.668 329.5,304.668 328.5,422.5C 328.5,304.167 328.5,185.833 328.5,67.5C 349.5,67.5 370.5,67.5 391.5,67.5C 391.5,66.1667 391.5,64.8333 391.5,63.5 Z"/></g>
<g><path style="opacity:1" fill="#41f4ef" d="M 450.5,150.5 C 470.307,161.786 491.64,167.786 514.5,168.5C 514.5,174.833 514.5,181.167 514.5,187.5C 488.702,182.603 467.035,170.436 449.5,151C 449.728,150.601 450.062,150.435 450.5,150.5 Z"/></g>
<g><path style="opacity:0.987" fill="#fefefe" d="M 1086.5,158.5 C 1117.5,158.5 1148.5,158.5 1179.5,158.5C 1179.33,218.501 1179.5,278.501 1180,338.5C 1210.17,309 1240.33,279.5 1270.5,250C 1308.17,249.333 1345.83,249.333 1383.5,250C 1344.49,287.344 1305.82,325.01 1267.5,363C 1310.49,424.656 1353.49,486.323 1396.5,548C 1362.17,548.667 1327.83,548.667 1293.5,548C 1264.62,505.071 1235.62,462.237 1206.5,419.5C 1198.17,428.326 1189.34,436.66 1180,444.5C 1179.5,478.498 1179.33,512.498 1179.5,546.5C 1148.5,546.5 1117.5,546.5 1086.5,546.5C 1086.5,417.167 1086.5,287.833 1086.5,158.5 Z"/></g>
<g><path style="opacity:0.982" fill="#fefefe" d="M 2064.5,158.5 C 2095.83,158.5 2127.17,158.5 2158.5,158.5C 2158.33,218.501 2158.5,278.501 2159,338.5C 2189.17,309 2219.33,279.5 2249.5,250C 2286.84,249.167 2324.17,249.333 2361.5,250.5C 2323.03,288.134 2284.37,325.634 2245.5,363C 2288.87,424.238 2331.87,485.738 2374.5,547.5C 2340.17,548.833 2305.83,548.833 2271.5,547.5C 2242.75,505.005 2214.25,462.339 2186,419.5C 2176.4,427.098 2167.4,435.431 2159,444.5C 2158.5,478.498 2158.33,512.498 2158.5,546.5C 2127.17,546.5 2095.83,546.5 2064.5,546.5C 2064.5,417.167 2064.5,287.833 2064.5,158.5 Z"/></g>
<g><path style="opacity:0.984" fill="#fefefe" d="M 649.5,160.5 C 746.167,160.333 842.834,160.5 939.5,161C 930.657,188.682 921.991,216.182 913.5,243.5C 888.842,244.5 864.176,244.833 839.5,244.5C 839.5,346.5 839.5,448.5 839.5,550.5C 808.167,550.5 776.833,550.5 745.5,550.5C 745.5,447.833 745.5,345.167 745.5,242.5C 714.167,242.5 682.833,242.5 651.5,242.5C 650.621,215.174 649.955,187.841 649.5,160.5 Z"/></g>
<g><path style="opacity:0.974" fill="#fefefe" d="M 997.5,160.5 C 1029.29,160.29 1046.96,175.957 1050.5,207.5C 1049.84,227.394 1039.84,241.894 1020.5,251C 998.306,257.751 979.973,252.584 965.5,235.5C 953.14,215.828 953.64,196.494 967,177.5C 975.288,168.277 985.454,162.61 997.5,160.5 Z"/></g>
<g><path style="opacity:0.989" fill="#fefefe" d="M 1411.5,160.5 C 1510.5,160.5 1609.5,160.5 1708.5,160.5C 1707.38,166.298 1705.88,171.631 1704,176.5C 1696.85,199.083 1690.02,221.749 1683.5,244.5C 1656.17,244.5 1628.83,244.5 1601.5,244.5C 1601.5,346.5 1601.5,448.5 1601.5,550.5C 1569.83,550.5 1538.17,550.5 1506.5,550.5C 1506.5,447.833 1506.5,345.167 1506.5,242.5C 1474.83,242.5 1443.17,242.5 1411.5,242.5C 1411.5,215.167 1411.5,187.833 1411.5,160.5 Z"/></g>
<g><path style="opacity:0.871" fill="#fc6d87" d="M 515.5,189.5 C 517.099,189.232 518.432,189.566 519.5,190.5C 518.167,190.5 516.833,190.5 515.5,190.5C 515.831,212.673 515.497,234.673 514.5,256.5C 514.169,233.994 514.503,211.66 515.5,189.5 Z"/></g>
<g><path style="opacity:1" fill="#fe3157" d="M 519.5,190.5 C 526.186,190.527 532.852,190.861 539.5,191.5C 539.5,221.167 539.5,250.833 539.5,280.5C 520.289,280.708 501.623,278.041 483.5,272.5C 481.485,271.076 479.152,270.41 476.5,270.5C 467.198,268.454 458.364,265.121 450,260.5C 445.594,258.709 441.094,256.375 436.5,253.5C 436.027,252.094 435.027,251.427 433.5,251.5C 432.508,251.672 431.842,251.338 431.5,250.5C 431.027,249.094 430.027,248.427 428.5,248.5C 427.508,248.672 426.842,248.338 426.5,247.5C 426.027,246.094 425.027,245.427 423.5,245.5C 423.027,244.094 422.027,243.427 420.5,243.5C 419.713,241.896 418.38,241.229 416.5,241.5C 416.5,304.5 416.5,367.5 416.5,430.5C 416.5,432.833 416.5,435.167 416.5,437.5C 416.5,438.5 416.5,439.5 416.5,440.5C 415.539,442.265 415.205,444.265 415.5,446.5C 415.142,451.986 414.142,457.32 412.5,462.5C 411.262,464.214 410.595,466.214 410.5,468.5C 410.5,468.833 410.5,469.167 410.5,469.5C 409.596,470.209 409.263,471.209 409.5,472.5C 408.596,473.209 408.263,474.209 408.5,475.5C 406.627,482.236 403.961,488.57 400.5,494.5C 399.662,494.842 399.328,495.508 399.5,496.5C 396.503,503.838 392.503,510.505 387.5,516.5C 386.094,516.973 385.427,517.973 385.5,519.5C 375.833,532.5 364.5,543.833 351.5,553.5C 349.973,553.427 348.973,554.094 348.5,555.5C 347.833,555.833 347.167,556.167 346.5,556.5C 345.29,556.932 344.29,557.599 343.5,558.5C 329.656,568.23 313.99,575.23 296.5,579.5C 294.901,579.232 293.568,579.566 292.5,580.5C 288.958,581.675 285.291,582.341 281.5,582.5C 279.585,582.216 277.919,582.549 276.5,583.5C 275.5,583.5 274.5,583.5 273.5,583.5C 271.265,583.205 269.265,583.539 267.5,584.5C 264.833,584.5 262.167,584.5 259.5,584.5C 256.167,584.5 252.833,584.5 249.5,584.5C 247.5,584.5 245.5,584.5 243.5,584.5C 241.052,583.527 238.385,583.194 235.5,583.5C 228.992,583.397 222.659,582.397 216.5,580.5C 213.495,578.723 210.162,577.723 206.5,577.5C 204.035,577.233 201.701,576.566 199.5,575.5C 198.365,573.787 196.698,573.12 194.5,573.5C 188.928,571.714 183.595,569.381 178.5,566.5C 176.178,564.336 173.511,562.669 170.5,561.5C 168.938,561.267 167.605,560.6 166.5,559.5C 166.167,558.5 165.5,557.833 164.5,557.5C 160.268,555.6 156.601,552.933 153.5,549.5C 153.027,548.094 152.027,547.427 150.5,547.5C 150.167,546.5 149.5,545.833 148.5,545.5C 146.246,544.876 144.579,543.543 143.5,541.5C 143.167,540.5 142.5,539.833 141.5,539.5C 140.833,539.5 140.5,539.167 140.5,538.5C 139.537,537.637 139.537,536.97 140.5,536.5C 187.715,566.185 237.382,571.018 289.5,551C 349.669,524.153 383.836,477.987 392,412.5C 392.333,347.833 392.667,283.167 393,218.5C 429.493,244.389 469.993,257.055 514.5,256.5C 515.497,234.673 515.831,212.673 515.5,190.5C 516.833,190.5 518.167,190.5 519.5,190.5 Z"/></g>
<g><path style="opacity:0.994" fill="#fefefe" d="M 1879.5,231.5 C 1876.48,231.335 1873.48,231.502 1870.5,232C 1937.23,243.407 1982.07,280.907 2005,344.5C 2019.61,399.787 2009.28,449.787 1974,494.5C 1954.61,516.394 1931.11,532.061 1903.5,541.5C 1898.95,542.463 1894.62,543.797 1890.5,545.5C 1888.86,546.867 1887.19,547.201 1885.5,546.5C 1880.93,547.821 1876.27,548.655 1871.5,549C 1859.02,550.459 1846.68,550.959 1834.5,550.5C 1833.51,550.672 1832.84,550.338 1832.5,549.5C 1831.83,549.5 1831.17,549.5 1830.5,549.5C 1829.83,548.167 1829.17,548.167 1828.5,549.5C 1827.83,549.167 1827.17,548.833 1826.5,548.5C 1825.83,547.167 1825.17,547.167 1824.5,548.5C 1823.04,548.567 1821.71,548.234 1820.5,547.5C 1820.17,546.167 1819.83,546.167 1819.5,547.5C 1760.99,531.819 1721.49,495.485 1701,438.5C 1683.16,372.708 1698.99,316.542 1748.5,270C 1770.44,251.864 1795.44,239.864 1823.5,234C 1822.21,233.51 1820.87,233.343 1819.5,233.5C 1839.5,230.823 1859.5,230.156 1879.5,231.5 Z M 1842.5,313.5 C 1880.29,311.316 1907.46,327.316 1924,361.5C 1936.69,401.444 1925.85,433.277 1891.5,457C 1854.31,475.386 1821.48,469.552 1793,439.5C 1769.67,406.839 1769.67,374.172 1793,341.5C 1806.7,326.602 1823.2,317.269 1842.5,313.5 Z"/></g>
<g><path style="opacity:1" fill="#ff395b" d="M 1879.5,231.5 C 1928.86,232.484 1969.19,251.818 2000.5,289.5C 2000.43,291.027 2001.09,292.027 2002.5,292.5C 2005.93,295.601 2008.6,299.268 2010.5,303.5C 2010.43,305.027 2011.09,306.027 2012.5,306.5C 2026.93,328.2 2034.6,352.2 2035.5,378.5C 2035.5,384.167 2035.5,389.833 2035.5,395.5C 2035.29,411.408 2032.29,426.741 2026.5,441.5C 2025.66,441.842 2025.33,442.508 2025.5,443.5C 2021.97,454.219 2017.3,463.886 2011.5,472.5C 2010.5,472.833 2009.83,473.5 2009.5,474.5C 2007.25,478.754 2004.58,482.754 2001.5,486.5C 2000.5,486.833 1999.83,487.5 1999.5,488.5C 1995.87,493.794 1991.54,498.461 1986.5,502.5C 1985.5,502.833 1984.83,503.5 1984.5,504.5C 1983.06,506.063 1981.39,507.396 1979.5,508.5C 1978.17,509.167 1977.17,510.167 1976.5,511.5C 1973.83,513.5 1971.17,515.5 1968.5,517.5C 1966.97,517.427 1965.97,518.094 1965.5,519.5C 1948.45,531.022 1929.78,538.689 1909.5,542.5C 1907.26,542.795 1905.26,542.461 1903.5,541.5C 1931.11,532.061 1954.61,516.394 1974,494.5C 2009.28,449.787 2019.61,399.787 2005,344.5C 1982.07,280.907 1937.23,243.407 1870.5,232C 1873.48,231.502 1876.48,231.335 1879.5,231.5 Z"/></g>
<g><path style="opacity:1" fill="#39f4ee" d="M 1819.5,233.5 C 1820.87,233.343 1822.21,233.51 1823.5,234C 1795.44,239.864 1770.44,251.864 1748.5,270C 1698.99,316.542 1683.16,372.708 1701,438.5C 1721.49,495.485 1760.99,531.819 1819.5,547.5C 1819.83,547.5 1820.17,547.5 1820.5,547.5C 1821.71,548.234 1823.04,548.567 1824.5,548.5C 1825.17,548.5 1825.83,548.5 1826.5,548.5C 1827.17,548.833 1827.83,549.167 1828.5,549.5C 1829.17,549.5 1829.83,549.5 1830.5,549.5C 1831.17,549.5 1831.83,549.5 1832.5,549.5C 1832.84,550.338 1833.51,550.672 1834.5,550.5C 1836.86,550.337 1839.19,550.503 1841.5,551C 1807.8,554.275 1776.3,547.109 1747,529.5C 1705.26,504.552 1679.93,467.552 1671,418.5C 1670.5,418 1670,417.5 1669.5,417C 1669.8,409.931 1669.8,402.764 1669.5,395.5C 1669.5,393.167 1669.5,390.833 1669.5,388.5C 1673.37,321.213 1705.7,273.38 1766.5,245C 1783.47,237.906 1801.14,234.073 1819.5,233.5 Z"/></g>
<g><path style="opacity:1" fill="#33f4ee" d="M 250.5,237.5 C 250.5,244.5 250.5,251.5 250.5,258.5C 174.27,264.58 123.437,303.58 98,375.5C 83.8435,431.907 94.3435,482.574 129.5,527.5C 94.2999,500.377 73.6332,463.877 67.5,418C 61.492,349.344 87.492,296.011 145.5,258C 178.32,239.002 213.32,232.168 250.5,237.5 Z"/></g>
<g><path style="opacity:0.761" fill="#fd6180" d="M 420.5,243.5 C 419.504,243.586 418.671,243.252 418,242.5C 417.5,305.166 417.333,367.832 417.5,430.5C 417.167,430.5 416.833,430.5 416.5,430.5C 416.5,367.5 416.5,304.5 416.5,241.5C 418.38,241.229 419.713,241.896 420.5,243.5 Z"/></g>
<g><path style="opacity:0.463" fill="#ffabb8" d="M 420.5,243.5 C 422.027,243.427 423.027,244.094 423.5,245.5C 421.973,245.573 420.973,244.906 420.5,243.5 Z"/></g>
<g><path style="opacity:0.4" fill="#ffb3be" d="M 423.5,245.5 C 425.027,245.427 426.027,246.094 426.5,247.5C 424.973,247.573 423.973,246.906 423.5,245.5 Z"/></g>
<g><path style="opacity:0.498" fill="#ffa3b1" d="M 428.5,248.5 C 430.027,248.427 431.027,249.094 431.5,250.5C 429.973,250.573 428.973,249.906 428.5,248.5 Z"/></g>
<g><path style="opacity:0.337" fill="#ffb8c3" d="M 433.5,251.5 C 435.027,251.427 436.027,252.094 436.5,253.5C 434.973,253.573 433.973,252.906 433.5,251.5 Z"/></g>
<g><path style="opacity:1" fill="#fe3358" d="M 276.5,258.5 C 277.159,288.852 276.492,318.852 274.5,348.5C 270.167,347.833 265.833,347.167 261.5,346.5C 256.833,345.167 252.167,345.167 247.5,346.5C 240.992,347.559 234.659,349.226 228.5,351.5C 226.597,351.796 224.93,352.463 223.5,353.5C 222.035,354.737 220.368,355.737 218.5,356.5C 216.973,356.427 215.973,357.094 215.5,358.5C 200.109,369.218 189.776,383.552 184.5,401.5C 183.596,402.209 183.263,403.209 183.5,404.5C 180.291,423.785 183.625,441.785 193.5,458.5C 193.631,459.376 193.298,460.043 192.5,460.5C 190.471,459.156 188.471,457.823 186.5,456.5C 186.167,456.5 185.833,456.5 185.5,456.5C 184.833,455.167 183.833,454.167 182.5,453.5C 182.167,453.5 181.833,453.5 181.5,453.5C 180.833,453.5 180.5,453.167 180.5,452.5C 179.833,452.5 179.5,452.167 179.5,451.5C 178.167,449.5 176.5,447.833 174.5,446.5C 173.833,446.5 173.5,446.167 173.5,445.5C 172.833,445.5 172.5,445.167 172.5,444.5C 171.833,444.5 171.5,444.167 171.5,443.5C 171.5,443.167 171.5,442.833 171.5,442.5C 171.167,441.5 170.5,440.833 169.5,440.5C 168.833,440.5 168.5,440.167 168.5,439.5C 168.5,439.167 168.5,438.833 168.5,438.5C 168.5,437.833 168.167,437.5 167.5,437.5C 167.5,437.167 167.5,436.833 167.5,436.5C 167.167,435.5 166.5,434.833 165.5,434.5C 165.5,434.167 165.5,433.833 165.5,433.5C 154.047,412.932 152.547,391.599 161,369.5C 180.163,332.939 209.996,318.939 250.5,327.5C 250.527,325.801 251.194,324.467 252.5,323.5C 252.5,301.167 252.5,278.833 252.5,256.5C 260.736,256.118 268.736,256.785 276.5,258.5 Z"/></g>
<g><path style="opacity:0.875" fill="#fd4c6c" d="M 276.5,258.5 C 277.498,288.662 277.831,318.995 277.5,349.5C 276.209,349.737 275.209,349.404 274.5,348.5C 276.492,318.852 277.159,288.852 276.5,258.5 Z"/></g>
<g><path style="opacity:0.898" fill="#ff96a4" d="M 476.5,270.5 C 479.152,270.41 481.485,271.076 483.5,272.5C 480.848,272.59 478.515,271.924 476.5,270.5 Z"/></g>
<g><path style="opacity:0.979" fill="#fefffe" d="M 956.5,284.5 C 987.833,284.5 1019.17,284.5 1050.5,284.5C 1050.5,372.5 1050.5,460.5 1050.5,548.5C 1019.17,548.5 987.833,548.5 956.5,548.5C 956.5,460.5 956.5,372.5 956.5,284.5 Z"/></g>
<g><path style="opacity:0.761" fill="#ffa5b2" d="M 2000.5,289.5 C 2001.91,289.973 2002.57,290.973 2002.5,292.5C 2001.09,292.027 2000.43,291.027 2000.5,289.5 Z"/></g>
<g><path style="opacity:0.533" fill="#ffa1af" d="M 2010.5,303.5 C 2011.91,303.973 2012.57,304.973 2012.5,306.5C 2011.09,306.027 2010.43,305.027 2010.5,303.5 Z"/></g>
<g><path style="opacity:0.125" fill="#ffd4db" d="M 247.5,346.5 C 252.167,345.167 256.833,345.167 261.5,346.5C 256.908,347.241 252.242,347.241 247.5,346.5 Z"/></g>
<g><path style="opacity:0.004" fill="#fff4f5" d="M 228.5,351.5 C 227.501,354.174 225.834,354.841 223.5,353.5C 224.93,352.463 226.597,351.796 228.5,351.5 Z"/></g>
<g><path style="opacity:0.004" fill="#fff0f2" d="M 218.5,356.5 C 218.027,357.906 217.027,358.573 215.5,358.5C 215.973,357.094 216.973,356.427 218.5,356.5 Z"/></g>
<g><path style="opacity:0.208" fill="#ffe0e5" d="M 2035.5,378.5 C 2037.46,384.315 2037.46,389.982 2035.5,395.5C 2035.5,389.833 2035.5,384.167 2035.5,378.5 Z"/></g>
<g><path style="opacity:0.063" fill="#f5fefe" d="M 1669.5,388.5 C 1669.5,390.833 1669.5,393.167 1669.5,395.5C 1667.57,393.373 1667.57,391.04 1669.5,388.5 Z"/></g>
<g><path style="opacity:0.004" fill="#ffe5e9" d="M 184.5,401.5 C 184.414,402.496 184.748,403.329 185.5,404C 184.906,404.464 184.239,404.631 183.5,404.5C 183.263,403.209 183.596,402.209 184.5,401.5 Z"/></g>
<g><path style="opacity:0.4" fill="#ffc9d3" d="M 416.5,430.5 C 416.833,430.5 417.167,430.5 417.5,430.5C 417.611,431.117 417.944,431.617 418.5,432C 417.891,433.948 417.224,435.782 416.5,437.5C 416.5,435.167 416.5,432.833 416.5,430.5 Z"/></g>
<g><path style="opacity:0.098" fill="#ffdde3" d="M 2026.5,441.5 C 2027.44,442.327 2027.11,442.994 2025.5,443.5C 2025.33,442.508 2025.66,441.842 2026.5,441.5 Z"/></g>
<g><path style="opacity:0.208" fill="#ffd0d8" d="M 416.5,440.5 C 416.33,441.822 416.663,442.989 417.5,444C 416.934,444.995 416.267,445.828 415.5,446.5C 415.205,444.265 415.539,442.265 416.5,440.5 Z"/></g>
<g><path style="opacity:0.01" fill="#ffd5dc" d="M 412.5,462.5 C 412.741,464.898 412.074,466.898 410.5,468.5C 410.595,466.214 411.262,464.214 412.5,462.5 Z"/></g>
<g><path style="opacity:0.235" fill="#ffd4dc" d="M 410.5,469.5 C 410.938,469.435 411.272,469.601 411.5,470C 410.934,470.995 410.267,471.828 409.5,472.5C 409.263,471.209 409.596,470.209 410.5,469.5 Z"/></g>
<g><path style="opacity:0.208" fill="#ffd7dd" d="M 409.5,472.5 C 410.815,473.895 410.481,474.895 408.5,475.5C 408.263,474.209 408.596,473.209 409.5,472.5 Z"/></g>
<g><path style="opacity:0.004" fill="#fff0f3" d="M 2011.5,472.5 C 2011.5,473.833 2010.83,474.5 2009.5,474.5C 2009.83,473.5 2010.5,472.833 2011.5,472.5 Z"/></g>
<g><path style="opacity:0.01" fill="#fffafb" d="M 2001.5,486.5 C 2001.5,487.833 2000.83,488.5 1999.5,488.5C 1999.83,487.5 2000.5,486.833 2001.5,486.5 Z"/></g>
<g><path style="opacity:0.035" fill="#ffe3e7" d="M 400.5,494.5 C 402.031,495.925 401.698,496.591 399.5,496.5C 399.328,495.508 399.662,494.842 400.5,494.5 Z"/></g>
<g><path style="opacity:0.004" fill="#fffbfb" d="M 1986.5,502.5 C 1986.5,503.833 1985.83,504.5 1984.5,504.5C 1984.83,503.5 1985.5,502.833 1986.5,502.5 Z"/></g>
<g><path style="opacity:0.01" fill="#fff9fa" d="M 1979.5,508.5 C 1979.5,510.5 1978.5,511.5 1976.5,511.5C 1977.17,510.167 1978.17,509.167 1979.5,508.5 Z"/></g>
<g><path style="opacity:0.004" fill="#ffe5e9" d="M 387.5,516.5 C 387.573,518.027 386.906,519.027 385.5,519.5C 385.427,517.973 386.094,516.973 387.5,516.5 Z"/></g>
<g><path style="opacity:0.004" fill="#fff6f8" d="M 1968.5,517.5 C 1968.03,518.906 1967.03,519.573 1965.5,519.5C 1965.97,518.094 1966.97,517.427 1968.5,517.5 Z"/></g>
<g><path style="opacity:0.016" fill="#fff0f2" d="M 141.5,539.5 C 142.5,539.833 143.167,540.5 143.5,541.5C 142.167,541.5 141.5,540.833 141.5,539.5 Z"/></g>
<g><path style="opacity:0.999" fill="#ff7d8e" d="M 1903.5,541.5 C 1905.26,542.461 1907.26,542.795 1909.5,542.5C 1906.73,543.657 1903.73,544.324 1900.5,544.5C 1898.1,544.448 1895.76,544.781 1893.5,545.5C 1892.5,545.5 1891.5,545.5 1890.5,545.5C 1894.62,543.797 1898.95,542.463 1903.5,541.5 Z"/></g>
<g><path style="opacity:0.004" fill="#fff9fa" d="M 1900.5,544.5 C 1898.86,545.38 1897.03,546.046 1895,546.5C 1894.24,546.43 1893.74,546.097 1893.5,545.5C 1895.76,544.781 1898.1,544.448 1900.5,544.5 Z"/></g>
<g><path style="opacity:0.004" fill="#ffe3e8" d="M 148.5,545.5 C 149.5,545.833 150.167,546.5 150.5,547.5C 149.167,547.5 148.5,546.833 148.5,545.5 Z"/></g>
<g><path style="opacity:0.792" fill="#ff9fad" d="M 150.5,547.5 C 152.027,547.427 153.027,548.094 153.5,549.5C 151.973,549.573 150.973,548.906 150.5,547.5 Z"/></g>
<g><path style="opacity:0.004" fill="#fff7f8" d="M 351.5,553.5 C 350.758,555.35 349.758,556.016 348.5,555.5C 348.973,554.094 349.973,553.427 351.5,553.5 Z"/></g>
<g><path style="opacity:0.004" fill="#ffe6eb" d="M 346.5,556.5 C 346.179,558.048 345.179,558.715 343.5,558.5C 344.29,557.599 345.29,556.932 346.5,556.5 Z"/></g>
<g><path style="opacity:0.004" fill="#ffecef" d="M 164.5,557.5 C 165.5,557.833 166.167,558.5 166.5,559.5C 165.167,559.5 164.5,558.833 164.5,557.5 Z"/></g>
<g><path style="opacity:0.016" fill="#ffdee3" d="M 170.5,561.5 C 173.511,562.669 176.178,564.336 178.5,566.5C 175.151,565.831 172.484,564.164 170.5,561.5 Z"/></g>
<g><path style="opacity:0.961" fill="#ffa2ab" d="M 194.5,573.5 C 196.698,573.12 198.365,573.787 199.5,575.5C 197.447,575.598 195.78,574.931 194.5,573.5 Z"/></g>
<g><path style="opacity:0.898" fill="#ffa3b0" d="M 206.5,577.5 C 210.162,577.723 213.495,578.723 216.5,580.5C 212.742,580.605 209.408,579.605 206.5,577.5 Z"/></g>
<g><path style="opacity:0.004" fill="#ffe9ec" d="M 292.5,580.5 C 293.568,579.566 294.901,579.232 296.5,579.5C 295.597,581.62 294.263,581.954 292.5,580.5 Z"/></g>
<g><path style="opacity:0.004" fill="#ffebee" d="M 276.5,583.5 C 277.919,582.549 279.585,582.216 281.5,582.5C 281.53,583.497 281.03,584.164 280,584.5C 278.862,584.011 277.695,583.678 276.5,583.5 Z"/></g>
<g><path style="opacity:0.694" fill="#ff9dad" d="M 235.5,583.5 C 238.385,583.194 241.052,583.527 243.5,584.5C 241.738,584.357 240.071,584.691 238.5,585.5C 237.261,585.058 236.261,584.391 235.5,583.5 Z"/></g>
<g><path style="opacity:0.004" fill="#ffdde2" d="M 273.5,583.5 C 273.189,584.478 272.522,585.145 271.5,585.5C 269.963,584.802 268.63,584.469 267.5,584.5C 269.265,583.539 271.265,583.205 273.5,583.5 Z"/></g>
<g><path style="opacity:0.004" fill="#fff5f7" d="M 249.5,584.5 C 252.833,584.5 256.167,584.5 259.5,584.5C 257.566,585.532 255.4,586.198 253,586.5C 251.301,586.613 250.134,585.947 249.5,584.5 Z"/></g>
</svg>
